<?xml version="1.0" encoding="UTF-8"?>
<!DOCTYPE svg PUBLIC "-//W3C//DTD SVG 1.1//EN" "http://www.w3.org/Graphics/SVG/1.1/DTD/svg11.dtd">
<svg xmlns="http://www.w3.org/2000/svg" version="1.1" width="499px" height="205px" style="shape-rendering:geometricPrecision; text-rendering:geometricPrecision; image-rendering:optimizeQuality; fill-rule:evenodd; clip-rule:evenodd" xmlns:xlink="http://www.w3.org/1999/xlink">
<g><path style="opacity:0.129" fill="#ebd7dc" d="M 251.5,26.5 C 252.568,25.5655 253.901,25.2322 255.5,25.5C 255.784,27.4147 255.451,29.0813 254.5,30.5C 254.5,29.1667 254.5,27.8333 254.5,26.5C 253.5,26.5 252.5,26.5 251.5,26.5 Z"/></g>
<g><path style="opacity:0.098" fill="#f0e1e5" d="M 279.5,26.5 C 284.015,25.1876 288.682,25.1876 293.5,26.5C 293.376,27.1067 293.043,27.44 292.5,27.5C 288.366,26.5151 284.032,26.1818 279.5,26.5 Z"/></g>
<g><path style="opacity:0.21" fill="#ead7dd" d="M 297.5,26.5 C 301.97,25.5139 306.637,25.1805 311.5,25.5C 311.768,27.099 311.434,28.4324 310.5,29.5C 310.5,29.1667 310.5,28.8333 310.5,28.5C 306.971,26.5772 302.971,25.9106 298.5,26.5C 298.167,26.5 297.833,26.5 297.5,26.5 Z"/></g>
<g><path style="opacity:0.953" fill="#9e759d" d="M 201.5,25.5 C 203.786,25.595 205.786,26.2616 207.5,27.5C 205.833,27.5 204.167,27.5 202.5,27.5C 202.167,26.8333 201.833,26.1667 201.5,25.5 Z"/></g>
<g><path style="opacity:1" fill="#9a012b" d="M 298.5,26.5 C 302.971,25.9106 306.971,26.5772 310.5,28.5C 306.029,29.0894 302.029,28.4228 298.5,26.5 Z"/></g>
<g><path style="opacity:0.827" fill="#b699b7" d="M 166.5,27.5 C 164.898,29.0739 162.898,29.7406 160.5,29.5C 162.214,28.2616 164.214,27.595 166.5,27.5 Z"/></g>
<g><path style="opacity:1" fill="#692370" d="M 201.5,25.5 C 201.833,26.1667 202.167,26.8333 202.5,27.5C 211.827,31.4529 211.494,33.4529 201.5,33.5C 195.768,33.2832 190.101,33.7832 184.5,35C 177.263,36.957 170.263,39.457 163.5,42.5C 162.167,42.5 160.833,42.5 159.5,42.5C 159.5,43.5 159.5,44.5 159.5,45.5C 159.158,46.3382 158.492,46.6716 157.5,46.5C 156.292,45.7659 154.959,45.4326 153.5,45.5C 153.567,46.9587 153.234,48.2921 152.5,49.5C 149.807,49.5715 147.14,49.9049 144.5,50.5C 139.241,49.1522 133.908,48.1522 128.5,47.5C 129.689,46.5713 131.022,46.238 132.5,46.5C 132.5,45.5 132.5,44.5 132.5,43.5C 138.516,38.8216 145.183,35.155 152.5,32.5C 155.716,32.6545 158.383,31.6545 160.5,29.5C 162.898,29.7406 164.898,29.0739 166.5,27.5C 177.945,23.63 189.612,22.9633 201.5,25.5 Z"/></g>
<g><path style="opacity:1" fill="#b35a69" d="M 297.5,26.5 C 297.833,26.5 298.167,26.5 298.5,26.5C 302.029,28.4228 306.029,29.0894 310.5,28.5C 310.5,28.8333 310.5,29.1667 310.5,29.5C 307.482,29.3354 304.482,29.502 301.5,30C 300.756,31.8148 300.089,33.6481 299.5,35.5C 299.5,35.8333 299.5,36.1667 299.5,36.5C 298.698,35.0484 298.198,33.3817 298,31.5C 297.148,32.5707 296.315,33.5707 295.5,34.5C 295.565,31.5718 296.232,28.9052 297.5,26.5 Z"/></g>
<g><path style="opacity:1" fill="#763c7a" d="M 202.5,27.5 C 204.167,27.5 205.833,27.5 207.5,27.5C 213.5,30.1667 217.833,34.5 220.5,40.5C 220.517,42.5648 220.85,44.5648 221.5,46.5C 219.476,43.4814 217.809,40.1481 216.5,36.5C 214.668,34.0428 213.001,34.0428 211.5,36.5C 213.14,38.1396 214.806,39.8063 216.5,41.5C 215.873,42.4168 215.539,43.4168 215.5,44.5C 213.732,42.4922 212.066,40.3256 210.5,38C 207.408,36.4541 204.408,34.9541 201.5,33.5C 211.494,33.4529 211.827,31.4529 202.5,27.5 Z"/></g>
<g><path style="opacity:0.941" fill="#977099" d="M 160.5,29.5 C 158.383,31.6545 155.716,32.6545 152.5,32.5C 154.936,31.129 157.603,30.129 160.5,29.5 Z"/></g>
<g><path style="opacity:0.092" fill="#eddadf" d="M 263.5,32.5 C 263.5,33.5 263.5,34.5 263.5,35.5C 266.5,35.5 269.5,35.5 272.5,35.5C 272.737,36.791 272.404,37.791 271.5,38.5C 269.012,36.6122 266.012,35.9455 262.5,36.5C 262.232,34.901 262.566,33.5676 263.5,32.5 Z"/></g>
<g><path style="opacity:0.086" fill="#f2e7ea" d="M 281.5,35.5 C 284.5,35.5 287.5,35.5 290.5,35.5C 290.768,37.099 290.434,38.4324 289.5,39.5C 289.5,38.5 289.5,37.5 289.5,36.5C 286.615,36.8064 283.948,36.4731 281.5,35.5 Z"/></g>
<g><path style="opacity:1" fill="#a13145" d="M 279.5,26.5 C 284.032,26.1818 288.366,26.5151 292.5,27.5C 289.663,29.4023 286.329,30.069 282.5,29.5C 282.483,31.5648 282.15,33.5648 281.5,35.5C 283.948,36.4731 286.615,36.8064 289.5,36.5C 289.5,37.5 289.5,38.5 289.5,39.5C 286.5,39.5 283.5,39.5 280.5,39.5C 280.768,41.099 280.434,42.4324 279.5,43.5C 278.566,44.5676 278.232,45.901 278.5,47.5C 282.042,47.1872 285.375,47.5206 288.5,48.5C 288.5,48.8333 288.5,49.1667 288.5,49.5C 283.381,50.1031 278.715,49.4364 274.5,47.5C 275.913,44.7814 276.58,41.7814 276.5,38.5C 276.898,34.2393 277.898,30.2393 279.5,26.5 Z"/></g>
<g><path style="opacity:0.588" fill="#cda2ad" d="M 299.5,36.5 C 299.5,36.1667 299.5,35.8333 299.5,35.5C 302.5,35.5 305.5,35.5 308.5,35.5C 308.5,36.8333 308.5,38.1667 308.5,39.5C 305.167,39.5 301.833,39.5 298.5,39.5C 301.358,38.834 304.358,38.1674 307.5,37.5C 304.914,36.52 302.247,36.1866 299.5,36.5 Z"/></g>
<g><path style="opacity:1" fill="#9a243b" d="M 299.5,36.5 C 302.247,36.1866 304.914,36.52 307.5,37.5C 304.358,38.1674 301.358,38.834 298.5,39.5C 298.768,41.099 298.434,42.4324 297.5,43.5C 296.566,44.5676 296.232,45.901 296.5,47.5C 300.329,46.931 303.663,47.5977 306.5,49.5C 301.821,49.6658 297.155,49.4992 292.5,49C 293.38,47.6439 293.714,46.1439 293.5,44.5C 293.54,41.0124 294.207,37.6791 295.5,34.5C 296.315,33.5707 297.148,32.5707 298,31.5C 298.198,33.3817 298.698,35.0484 299.5,36.5 Z"/></g>
<g><path style="opacity:1" fill="#a73b4a" d="M 251.5,26.5 C 252.5,26.5 253.5,26.5 254.5,26.5C 254.5,27.8333 254.5,29.1667 254.5,30.5C 253.422,36.8917 252.088,43.225 250.5,49.5C 249.022,49.762 247.689,49.4287 246.5,48.5C 247.348,46.5914 247.682,44.5914 247.5,42.5C 248.215,36.8971 249.548,31.5638 251.5,26.5 Z"/></g>
<g><path style="opacity:1" fill="#a94150" d="M 263.5,32.5 C 262.566,33.5676 262.232,34.901 262.5,36.5C 266.012,35.9455 269.012,36.6122 271.5,38.5C 268.713,39.4767 265.713,39.81 262.5,39.5C 262.737,40.791 262.404,41.791 261.5,42.5C 260.549,43.9187 260.216,45.5853 260.5,47.5C 263.572,47.1826 266.572,47.5159 269.5,48.5C 265.217,49.4922 260.884,49.8256 256.5,49.5C 256.5,48.5 256.5,47.5 256.5,46.5C 257.516,39.7687 258.85,33.102 260.5,26.5C 262.833,26.1667 265.167,25.8333 267.5,25.5C 270.364,25.386 273.03,25.886 275.5,27C 272.301,29.2768 268.635,30.1102 264.5,29.5C 264.737,30.791 264.404,31.791 263.5,32.5 Z"/></g>
<g><path style="opacity:1" fill="#966c98" d="M 163.5,42.5 C 162.564,43.9744 161.23,44.9744 159.5,45.5C 159.5,44.5 159.5,43.5 159.5,42.5C 160.833,42.5 162.167,42.5 163.5,42.5 Z"/></g>
<g><path style="opacity:0.89" fill="#c68d9b" d="M 276.5,38.5 C 276.58,41.7814 275.913,44.7814 274.5,47.5C 274.42,44.2186 275.087,41.2186 276.5,38.5 Z"/></g>
<g><path style="opacity:0.843" fill="#ac91ad" d="M 220.5,40.5 C 222.04,42.8383 222.706,45.5049 222.5,48.5C 221.662,48.1583 221.328,47.4916 221.5,46.5C 220.85,44.5648 220.517,42.5648 220.5,40.5 Z"/></g>
<g><path style="opacity:1" fill="#9c709b" d="M 157.5,46.5 C 156.101,47.8897 154.434,48.8897 152.5,49.5C 153.234,48.2921 153.567,46.9587 153.5,45.5C 154.959,45.4326 156.292,45.7659 157.5,46.5 Z"/></g>
<g><path style="opacity:0.392" fill="#d2adb7" d="M 279.5,43.5 C 279.5,44.5 279.5,45.5 279.5,46.5C 282.898,46.1796 286.232,46.513 289.5,47.5C 289.376,48.1067 289.043,48.44 288.5,48.5C 285.375,47.5206 282.042,47.1872 278.5,47.5C 278.232,45.901 278.566,44.5676 279.5,43.5 Z"/></g>
<g><path style="opacity:0.439" fill="#d0abb5" d="M 297.5,43.5 C 297.5,44.5 297.5,45.5 297.5,46.5C 300.833,46.5 304.167,46.5 307.5,46.5C 307.737,47.791 307.404,48.791 306.5,49.5C 303.663,47.5977 300.329,46.931 296.5,47.5C 296.232,45.901 296.566,44.5676 297.5,43.5 Z"/></g>
<g><path style="opacity:0.749" fill="#ae8bae" d="M 126.5,47.5 C 126.027,48.9063 125.027,49.573 123.5,49.5C 123.973,48.0937 124.973,47.427 126.5,47.5 Z"/></g>
<g><path style="opacity:0.996" fill="#763f7a" d="M 132.5,43.5 C 132.5,44.5 132.5,45.5 132.5,46.5C 131.022,46.238 129.689,46.5713 128.5,47.5C 133.908,48.1522 139.241,49.1522 144.5,50.5C 147.14,49.9049 149.807,49.5715 152.5,49.5C 150.813,51.1662 148.813,52.4995 146.5,53.5C 140.786,50.9483 134.786,49.9483 128.5,50.5C 126.585,50.7845 124.919,50.4511 123.5,49.5C 125.027,49.573 126.027,48.9063 126.5,47.5C 128.147,45.6736 130.147,44.3403 132.5,43.5 Z"/></g>
<g><path style="opacity:0.38" fill="#cf99a6" d="M 247.5,42.5 C 247.682,44.5914 247.348,46.5914 246.5,48.5C 247.689,49.4287 249.022,49.762 250.5,49.5C 249.081,50.4511 247.415,50.7845 245.5,50.5C 245.565,47.5718 246.232,44.9052 247.5,42.5 Z"/></g>
<g><path style="opacity:0.553" fill="#c28e9c" d="M 261.5,42.5 C 261.5,43.8333 261.5,45.1667 261.5,46.5C 264.5,46.5 267.5,46.5 270.5,46.5C 270.5,47.8333 270.5,49.1667 270.5,50.5C 265.5,50.5 260.5,50.5 255.5,50.5C 255.232,48.901 255.566,47.5676 256.5,46.5C 256.5,47.5 256.5,48.5 256.5,49.5C 260.884,49.8256 265.217,49.4922 269.5,48.5C 266.572,47.5159 263.572,47.1826 260.5,47.5C 260.216,45.5853 260.549,43.9187 261.5,42.5 Z"/></g>
<g><path style="opacity:0.675" fill="#be8494" d="M 274.5,47.5 C 278.715,49.4364 283.381,50.1031 288.5,49.5C 283.695,50.4872 278.695,50.8205 273.5,50.5C 273.263,49.209 273.596,48.209 274.5,47.5 Z"/></g>
<g><path style="opacity:0.549" fill="#c08695" d="M 293.5,44.5 C 293.714,46.1439 293.38,47.6439 292.5,49C 297.155,49.4992 301.821,49.6658 306.5,49.5C 301.695,50.4872 296.695,50.8205 291.5,50.5C 291.595,48.2143 292.262,46.2143 293.5,44.5 Z"/></g>
<g><path style="opacity:0.937" fill="#af91a8" d="M 123.5,49.5 C 124.919,50.4511 126.585,50.7845 128.5,50.5C 126.03,51.6932 123.364,52.1932 120.5,52C 121.373,50.955 122.373,50.1217 123.5,49.5 Z"/></g>
<g><path style="opacity:0.686" fill="#a383a4" d="M 215.5,45.5 C 217.531,48.7076 217.865,52.041 216.5,55.5C 216.384,52.1401 216.051,48.8067 215.5,45.5 Z"/></g>
<g><path style="opacity:1" fill="#ab4655" d="M 150.5,60.5 C 148.856,60.2865 147.356,60.6198 146,61.5C 146.263,60.0494 146.096,58.7161 145.5,57.5C 144.914,57.7093 144.414,58.0426 144,58.5C 141.078,55.5259 137.578,54.3593 133.5,55C 136.028,56.3159 136.028,57.4826 133.5,58.5C 134.325,59.3857 135.325,59.719 136.5,59.5C 136.5,60.5 136.5,61.5 136.5,62.5C 133.525,61.0893 130.358,60.4226 127,60.5C 121.219,60.8204 115.719,62.1537 110.5,64.5C 109.662,64.1583 109.328,63.4916 109.5,62.5C 109.973,61.0937 110.973,60.427 112.5,60.5C 114.027,60.573 115.027,59.9063 115.5,58.5C 124.567,52.7686 134.234,51.6019 144.5,55C 146.996,56.331 148.996,58.1644 150.5,60.5 Z"/></g>
<g><path style="opacity:0.502" fill="#dac1c8" d="M 337.5,55.5 C 339.364,54.2072 341.364,54.2072 343.5,55.5C 343.376,56.1067 343.043,56.44 342.5,56.5C 341.081,55.5489 339.415,55.2155 337.5,55.5 Z"/></g>
<g><path style="opacity:0.424" fill="#dbbec5" d="M 287.5,54.5 C 288.209,53.596 289.209,53.2627 290.5,53.5C 290.784,55.4147 290.451,57.0813 289.5,58.5C 289.843,56.5168 289.176,55.1834 287.5,54.5 Z"/></g>
<g><path style="opacity:1" fill="#a12e41" d="M 336.5,55.5 C 336.833,55.5 337.167,55.5 337.5,55.5C 339.415,55.2155 341.081,55.5489 342.5,56.5C 342.616,59.9103 340.95,61.2436 337.5,60.5C 336.549,59.0813 336.216,57.4147 336.5,55.5 Z"/></g>
<g><path style="opacity:0.667" fill="#c58798" d="M 287.5,54.5 C 286.791,55.404 285.791,55.7373 284.5,55.5C 284.737,56.791 284.404,57.791 283.5,58.5C 283.5,57.1667 283.5,55.8333 283.5,54.5C 284.833,54.5 286.167,54.5 287.5,54.5 Z"/></g>
<g><path style="opacity:1" fill="#9a1333" d="M 150.5,60.5 C 151.974,61.4363 152.974,62.7697 153.5,64.5C 153.41,67.1522 154.076,69.4855 155.5,71.5C 157.862,81.6845 155.528,90.6845 148.5,98.5C 145.107,98.0617 142.107,98.8951 139.5,101C 140.056,101.383 140.389,101.883 140.5,102.5C 140.489,104.017 139.823,105.184 138.5,106C 138.833,106.333 139.167,106.667 139.5,107C 138.333,107.5 137.5,108.333 137,109.5C 135.927,108.72 134.76,108.887 133.5,110C 136.797,112.237 139.63,111.737 142,108.5C 144.629,110.335 145.129,112.669 143.5,115.5C 146.767,116.723 146.767,118.556 143.5,121C 144.308,121.308 144.975,121.808 145.5,122.5C 144.833,122.833 144.167,123.167 143.5,123.5C 145.333,124.968 145.666,126.635 144.5,128.5C 143.5,127.167 142.5,127.167 141.5,128.5C 139.477,126.827 137.144,126.16 134.5,126.5C 133.5,126.167 132.833,125.5 132.5,124.5C 131.738,122.738 130.404,121.738 128.5,121.5C 126.091,120.299 124.091,118.633 122.5,116.5C 121.415,114.413 119.749,113.08 117.5,112.5C 117.027,111.094 116.027,110.427 114.5,110.5C 113.5,110.167 112.833,109.5 112.5,108.5C 111.463,106.262 111.297,103.929 112,101.5C 114.253,101.946 116.753,102.112 119.5,102C 119.381,100.719 119.881,99.5521 121,98.5C 121.333,98.8333 121.667,99.1667 122,99.5C 122.908,97.5614 124.408,96.5614 126.5,96.5C 126.5,95.5 126.5,94.5 126.5,93.5C 129.5,92.5 131.5,90.5 132.5,87.5C 132.833,86.5 133.5,85.8333 134.5,85.5C 135.906,85.0269 136.573,84.0269 136.5,82.5C 138.975,81.3126 139.975,79.3126 139.5,76.5C 140.197,71.3597 139.197,66.693 136.5,62.5C 136.5,61.5 136.5,60.5 136.5,59.5C 135.325,59.719 134.325,59.3857 133.5,58.5C 136.028,57.4826 136.028,56.3159 133.5,55C 137.578,54.3593 141.078,55.5259 144,58.5C 144.414,58.0426 144.914,57.7093 145.5,57.5C 146.096,58.7161 146.263,60.0494 146,61.5C 147.356,60.6198 148.856,60.2865 150.5,60.5 Z"/></g>
<g><path style="opacity:0.094" fill="#ece1e4" d="M 328.5,57.5 C 329.472,56.2486 330.139,56.582 330.5,58.5C 330.457,59.4164 330.124,60.0831 329.5,60.5C 329.737,59.209 329.404,58.209 328.5,57.5 Z"/></g>
<g><path style="opacity:0.553" fill="#d4aeb8" d="M 336.5,55.5 C 336.216,57.4147 336.549,59.0813 337.5,60.5C 337.44,61.0431 337.107,61.3764 336.5,61.5C 335.207,59.3635 335.207,57.3635 336.5,55.5 Z"/></g>
<g><path style="opacity:0.749" fill="#cc97a4" d="M 115.5,58.5 C 115.027,59.9063 114.027,60.573 112.5,60.5C 112.973,59.0937 113.973,58.427 115.5,58.5 Z"/></g>
<g><path style="opacity:1" fill="#651b6d" d="M 221.5,46.5 C 221.328,47.4916 221.662,48.1583 222.5,48.5C 223.786,60.0493 221.119,70.716 214.5,80.5C 212.241,81.344 211.241,83.0107 211.5,85.5C 209.938,89.3918 207.605,92.7251 204.5,95.5C 203.85,95.1961 203.183,94.8627 202.5,94.5C 200.585,95.7349 199.585,97.0682 199.5,98.5C 198.808,97.9747 198.308,97.3081 198,96.5C 197.51,98.5454 197.677,100.545 198.5,102.5C 193.832,101.839 191.832,103.839 192.5,108.5C 187.814,107.984 185.481,109.984 185.5,114.5C 183.139,114.674 180.806,115.007 178.5,115.5C 178.5,117.167 178.5,118.833 178.5,120.5C 176.076,120.192 173.743,120.526 171.5,121.5C 172.127,122.417 172.461,123.417 172.5,124.5C 168.44,123.848 166.44,125.515 166.5,129.5C 166.158,130.338 165.492,130.672 164.5,130.5C 163.5,130.5 162.5,130.5 161.5,130.5C 159.526,127.23 157.526,123.897 155.5,120.5C 156.608,117.941 157.941,115.608 159.5,113.5C 160.721,112.972 161.887,112.305 163,111.5C 164.14,108.898 164.973,106.231 165.5,103.5C 166.992,99.1822 168.992,95.1822 171.5,91.5C 172.906,91.0269 173.573,90.0269 173.5,88.5C 175.991,86.6479 178.491,84.6479 181,82.5C 181.492,81.451 181.326,80.451 180.5,79.5C 182.423,76.4794 183.423,73.1461 183.5,69.5C 184.906,69.0269 185.573,68.0269 185.5,66.5C 186.376,66.6309 187.043,66.2975 187.5,65.5C 189.223,62.2679 190.556,58.9346 191.5,55.5C 192.492,53.9735 193.992,53.3068 196,53.5C 197.561,53.6032 199.061,53.9366 200.5,54.5C 202.159,62.4361 203.492,70.4361 204.5,78.5C 205.852,77.4756 207.185,76.4756 208.5,75.5C 209.906,75.0269 210.573,74.0269 210.5,72.5C 211.906,72.0269 212.573,71.0269 212.5,69.5C 212.5,69.1667 212.5,68.8333 212.5,68.5C 214.834,66.8243 215.834,64.491 215.5,61.5C 215.325,59.3792 215.659,57.3792 216.5,55.5C 217.865,52.041 217.531,48.7076 215.5,45.5C 215.5,45.1667 215.5,44.8333 215.5,44.5C 215.539,43.4168 215.873,42.4168 216.5,41.5C 214.806,39.8063 213.14,38.1396 211.5,36.5C 213.001,34.0428 214.668,34.0428 216.5,36.5C 217.809,40.1481 219.476,43.4814 221.5,46.5 Z"/></g>
<g><path style="opacity:1" fill="#a53547" d="M 398.5,70.5 C 399.117,70.3893 399.617,70.056 400,69.5C 400.494,71.1341 400.66,72.8008 400.5,74.5C 399.438,76.0992 399.438,77.7659 400.5,79.5C 398.735,80.4614 396.735,80.7947 394.5,80.5C 393.791,79.596 392.791,79.2627 391.5,79.5C 391.784,77.5853 391.451,75.9187 390.5,74.5C 388.46,72.1335 387.46,72.8001 387.5,76.5C 388.209,77.404 389.209,77.7373 390.5,77.5C 390.5,78.5 390.5,79.5 390.5,80.5C 388.167,80.5 385.833,80.5 383.5,80.5C 383.167,79.5 382.5,78.8333 381.5,78.5C 380.378,76.7116 380.211,74.7116 381,72.5C 382.658,70.6771 384.491,69.0105 386.5,67.5C 384.66,59.2192 387.994,56.0525 396.5,58C 399.203,59.8201 400.036,62.3201 399,65.5C 396.295,66.9529 395.461,68.9529 396.5,71.5C 397.183,71.1373 397.85,70.8039 398.5,70.5 Z M 392.5,61.5 C 395.125,62.4657 395.125,63.4657 392.5,64.5C 391.438,63.5754 391.438,62.5754 392.5,61.5 Z M 390.5,74.5 C 390.179,76.0481 389.179,76.7148 387.5,76.5C 387.46,72.8001 388.46,72.1335 390.5,74.5 Z"/></g>
<g><path style="opacity:1" fill="#a13144" d="M 256.5,78.5 C 255.082,80.3079 253.082,80.9746 250.5,80.5C 249.434,78.2986 248.767,75.9653 248.5,73.5C 248.179,71.9519 247.179,71.2852 245.5,71.5C 245.5,72.8333 245.5,74.1667 245.5,75.5C 245.784,77.4147 245.451,79.0813 244.5,80.5C 242.265,80.7947 240.265,80.4614 238.5,79.5C 238.7,76.3704 239.366,73.3704 240.5,70.5C 242.04,68.1617 242.706,65.4951 242.5,62.5C 242.261,60.5328 242.594,58.6995 243.5,57C 247.833,56.3333 252.167,56.3333 256.5,57C 260.01,58.9066 261.176,61.7399 260,65.5C 258.518,67.9803 256.685,70.1469 254.5,72C 255.609,74.0466 256.276,76.2133 256.5,78.5 Z M 248.5,61.5 C 254.626,62.6138 254.96,64.6138 249.5,67.5C 248.534,65.604 248.201,63.604 248.5,61.5 Z"/></g>
<g><path style="opacity:0.737" fill="#cb97a4" d="M 289.5,58.5 C 289.5,59.8333 289.5,61.1667 289.5,62.5C 291.735,62.2053 293.735,62.5386 295.5,63.5C 293.167,63.5 290.833,63.5 288.5,63.5C 288.216,61.5853 288.549,59.9187 289.5,58.5 Z"/></g>
<g><path style="opacity:0.357" fill="#e5c8d1" d="M 323.5,61.5 C 323.179,63.0481 322.179,63.7148 320.5,63.5C 321.29,62.5987 322.29,61.9321 323.5,61.5 Z"/></g>
<g><path style="opacity:0.169" fill="#e0c6cd" d="M 329.5,60.5 C 329.821,62.0481 330.821,62.7148 332.5,62.5C 332.737,63.791 332.404,64.791 331.5,65.5C 331.179,63.9519 330.179,63.2852 328.5,63.5C 328.263,62.209 328.596,61.209 329.5,60.5 Z"/></g>
<g><path style="opacity:0.616" fill="#d0b4bc" d="M 335.5,63.5 C 337.265,62.5386 339.265,62.2053 341.5,62.5C 341.737,63.791 341.404,64.791 340.5,65.5C 339.448,63.744 337.781,63.0773 335.5,63.5 Z"/></g>
<g><path style="opacity:1" fill="#855589" d="M 191.5,55.5 C 190.556,58.9346 189.223,62.2679 187.5,65.5C 187.043,66.2975 186.376,66.6309 185.5,66.5C 186.742,62.3447 188.742,58.678 191.5,55.5 Z"/></g>
<g><path style="opacity:1" fill="#b76774" d="M 305.5,63.5 C 308.304,62.3622 311.304,62.1955 314.5,63C 315.056,63.3826 315.389,63.8826 315.5,64.5C 312.14,64.3841 308.807,64.0508 305.5,63.5 Z"/></g>
<g><path style="opacity:1" fill="#af5e6c" d="M 335.5,63.5 C 337.781,63.0773 339.448,63.744 340.5,65.5C 340.198,68.3725 339.531,71.0392 338.5,73.5C 338.223,70.5525 338.556,67.7191 339.5,65C 337.866,64.5065 336.199,64.3398 334.5,64.5C 334.768,66.099 334.434,67.4324 333.5,68.5C 333.077,66.2188 333.744,64.5521 335.5,63.5 Z"/></g>
<g><path style="opacity:0.018" fill="#e4d3d8" d="M 109.5,62.5 C 109.328,63.4916 109.662,64.1583 110.5,64.5C 109.503,65.7125 108.503,65.5458 107.5,64C 108.044,63.2828 108.711,62.7828 109.5,62.5 Z"/></g>
<g><path style="opacity:1" fill="#a47ea6" d="M 215.5,61.5 C 215.834,64.491 214.834,66.8243 212.5,68.5C 212.935,65.8427 213.935,63.5093 215.5,61.5 Z"/></g>
<g><path style="opacity:1" fill="#ad616f" d="M 371.5,63.5 C 368.302,62.9644 365.635,63.631 363.5,65.5C 359.932,65.7593 358.599,67.7593 359.5,71.5C 357.536,65.2683 360.036,62.2683 367,62.5C 368.707,62.5085 370.207,62.8418 371.5,63.5 Z"/></g>
<g><path style="opacity:1" fill="#8e092e" d="M 371.5,63.5 C 369.365,65.369 366.698,66.0356 363.5,65.5C 365.635,63.631 368.302,62.9644 371.5,63.5 Z"/></g>
<g><path style="opacity:1" fill="#9f2b40" d="M 287.5,54.5 C 289.176,55.1834 289.843,56.5168 289.5,58.5C 288.549,59.9187 288.216,61.5853 288.5,63.5C 290.833,63.5 293.167,63.5 295.5,63.5C 298.075,65.8453 299.075,68.8453 298.5,72.5C 297.833,73.5 297.167,74.5 296.5,75.5C 293.988,77.1788 291.988,76.8454 290.5,74.5C 291.219,72.2362 291.552,69.9029 291.5,67.5C 290.167,67.5 288.833,67.5 287.5,67.5C 287.768,69.099 287.434,70.4324 286.5,71.5C 284.692,72.9179 284.025,74.9179 284.5,77.5C 287.216,77.3862 289.216,78.3862 290.5,80.5C 286.833,80.5 283.167,80.5 279.5,80.5C 279.5,79.1667 279.5,77.8333 279.5,76.5C 279.5,75.1667 279.5,73.8333 279.5,72.5C 280.949,67.9555 282.283,63.2888 283.5,58.5C 284.404,57.791 284.737,56.791 284.5,55.5C 285.791,55.7373 286.791,55.404 287.5,54.5 Z M 290.5,74.5 C 286.168,77.501 284.835,76.501 286.5,71.5C 287.434,70.4324 287.768,69.099 287.5,67.5C 288.833,67.5 290.167,67.5 291.5,67.5C 291.552,69.9029 291.219,72.2362 290.5,74.5 Z"/></g>
<g><path style="opacity:0.42" fill="#cc9eaa" d="M 320.5,64.5 C 320.904,65.7564 321.571,66.9231 322.5,68C 322.43,68.7648 322.097,69.2648 321.5,69.5C 321.096,68.2436 320.429,67.0769 319.5,66C 319.57,65.2352 319.903,64.7352 320.5,64.5 Z"/></g>
<g><path style="opacity:1" fill="#9e253c" d="M 328.5,57.5 C 329.404,58.209 329.737,59.209 329.5,60.5C 328.596,61.209 328.263,62.209 328.5,63.5C 330.179,63.2852 331.179,63.9519 331.5,65.5C 331.5,65.8333 331.5,66.1667 331.5,66.5C 329.517,66.1568 328.183,66.8235 327.5,68.5C 327.634,70.2915 327.301,71.9582 326.5,73.5C 325.566,74.5676 325.232,75.901 325.5,77.5C 326.5,77.5 327.5,77.5 328.5,77.5C 328.5,78.5 328.5,79.5 328.5,80.5C 326.047,82.8691 323.381,82.8691 320.5,80.5C 319.386,76.725 319.719,73.0583 321.5,69.5C 322.097,69.2648 322.43,68.7648 322.5,68C 321.571,66.9231 320.904,65.7564 320.5,64.5C 320.5,64.1667 320.5,63.8333 320.5,63.5C 322.179,63.7148 323.179,63.0481 323.5,61.5C 323.384,58.0897 325.05,56.7564 328.5,57.5 Z"/></g>
<g><path style="opacity:1" fill="#b66572" d="M 371.5,63.5 C 372.999,68.487 371.499,69.487 367,66.5C 365.699,66.6387 364.866,67.3054 364.5,68.5C 363.596,67.791 363.263,66.791 363.5,65.5C 366.698,66.0356 369.365,65.369 371.5,63.5 Z"/></g>
<g><path style="opacity:0.016" fill="#d9cad6" d="M 130.5,66.5 C 133.309,66.9577 133.976,68.2911 132.5,70.5C 132.267,68.9382 131.6,67.6049 130.5,66.5 Z"/></g>
<g><path style="opacity:0.404" fill="#d6afbb" d="M 331.5,66.5 C 330.329,67.3446 328.995,68.0113 327.5,68.5C 328.183,66.8235 329.517,66.1568 331.5,66.5 Z"/></g>
<g><path style="opacity:0.961" fill="#c38190" d="M 153.5,64.5 C 154.924,66.5145 155.59,68.8478 155.5,71.5C 154.076,69.4855 153.41,67.1522 153.5,64.5 Z"/></g>
<g><path style="opacity:0.333" fill="#c9b5c9" d="M 185.5,66.5 C 185.573,68.0269 184.906,69.0269 183.5,69.5C 183.427,67.9731 184.094,66.9731 185.5,66.5 Z"/></g>
<g><path style="opacity:1" fill="#ad4958" d="M 279.5,72.5 C 276.013,81.8566 270.013,84.19 261.5,79.5C 265.159,80.6834 268.825,80.6834 272.5,79.5C 272.291,78.914 271.957,78.414 271.5,78C 273.025,76.9914 274.692,76.4914 276.5,76.5C 276.662,74.4727 276.495,72.4727 276,70.5C 275.517,71.448 275.351,72.448 275.5,73.5C 274.5,73.5 273.5,73.5 272.5,73.5C 272.715,75.1788 272.048,76.1788 270.5,76.5C 271.634,73.6296 272.3,70.6296 272.5,67.5C 270.856,67.2865 269.356,67.6198 268,68.5C 266.921,71.0627 266.421,73.7294 266.5,76.5C 265.834,73.9723 265.168,71.3056 264.5,68.5C 263.473,67.2086 262.473,67.2086 261.5,68.5C 261.913,65.5849 263.579,63.7516 266.5,63C 274.876,60.8416 279.21,64.0083 279.5,72.5 Z"/></g>
<g><path style="opacity:1" fill="#a33145" d="M 305.5,63.5 C 308.807,64.0508 312.14,64.3841 315.5,64.5C 318.583,67.2485 319.25,70.5818 317.5,74.5C 315.468,75.0478 314.468,76.3812 314.5,78.5C 313.5,78.5 312.5,78.5 311.5,78.5C 311.5,76.8333 311.5,75.1667 311.5,73.5C 311.5,71.5 311.5,69.5 311.5,67.5C 309.856,67.2865 308.356,67.6198 307,68.5C 305.921,71.0627 305.421,73.7294 305.5,76.5C 307.111,78.0946 309.111,79.2612 311.5,80C 308.854,80.4974 306.187,80.6641 303.5,80.5C 303.5,79.5 303.5,78.5 303.5,77.5C 302.5,77.5 301.5,77.5 300.5,77.5C 300.5,74.5 300.5,71.5 300.5,68.5C 301.167,65.8333 302.833,64.1667 305.5,63.5 Z M 311.5,73.5 C 310.277,76.4467 308.277,77.4467 305.5,76.5C 305.421,73.7294 305.921,71.0627 307,68.5C 308.356,67.6198 309.856,67.2865 311.5,67.5C 311.5,69.5 311.5,71.5 311.5,73.5 Z"/></g>
<g><path style="opacity:0.612" fill="#c18c98" d="M 242.5,62.5 C 242.706,65.4951 242.04,68.1617 240.5,70.5C 240.565,67.5718 241.232,64.9052 242.5,62.5 Z"/></g>
<g><path style="opacity:1" fill="#7e467e" d="M 109.5,67.5 C 108.256,70.5426 105.923,71.876 102.5,71.5C 104.336,69.412 106.669,68.0787 109.5,67.5 Z"/></g>
<g><path style="opacity:1" fill="#bc7481" d="M 400.5,74.5 C 400.66,72.8008 400.494,71.1341 400,69.5C 399.617,70.056 399.117,70.3893 398.5,70.5C 398.967,67.1742 400.134,66.8409 402,69.5C 402.877,71.6742 402.377,73.3409 400.5,74.5 Z"/></g>
<g><path style="opacity:0.561" fill="#ad8eb0" d="M 212.5,69.5 C 212.573,71.0269 211.906,72.0269 210.5,72.5C 210.427,70.9731 211.094,69.9731 212.5,69.5 Z"/></g>
<g><path style="opacity:1" fill="#a53747" d="M 348.5,75.5 C 349.552,77.256 351.219,77.9227 353.5,77.5C 353.5,78.5 353.5,79.5 353.5,80.5C 350.753,80.8134 348.086,80.48 345.5,79.5C 344.995,78.0815 343.995,77.4148 342.5,77.5C 342.552,73.8019 342.886,70.1352 343.5,66.5C 344.343,64.8267 345.676,63.66 347.5,63C 350.76,62.2165 353.927,62.3832 357,63.5C 358.106,67.8965 356.606,69.2298 352.5,67.5C 350.971,67.5288 349.804,68.1955 349,69.5C 348.505,71.4727 348.338,73.4727 348.5,75.5 Z"/></g>
<g><path style="opacity:0.722" fill="#b595b6" d="M 102.5,71.5 C 101.738,73.2624 100.404,74.2624 98.5,74.5C 99.2623,72.7376 100.596,71.7376 102.5,71.5 Z"/></g>
<g><path style="opacity:0.278" fill="#dfbfc7" d="M 248.5,73.5 C 247.883,73.3893 247.383,73.056 247,72.5C 246.768,73.7375 246.268,74.7375 245.5,75.5C 245.5,74.1667 245.5,72.8333 245.5,71.5C 247.179,71.2852 248.179,71.9519 248.5,73.5 Z"/></g>
<g><path style="opacity:0.847" fill="#b06776" d="M 343.5,66.5 C 342.886,70.1352 342.552,73.8019 342.5,77.5C 341.098,73.7104 341.431,70.0437 343.5,66.5 Z"/></g>
<g><path style="opacity:1" fill="#b45866" d="M 359.5,71.5 C 361.094,71.9195 362.594,72.5862 364,73.5C 364.772,73.3552 365.439,73.0219 366,72.5C 366.495,74.4727 366.662,76.4727 366.5,78.5C 364.473,78.6621 362.473,78.4955 360.5,78C 359.944,77.6174 359.611,77.1174 359.5,76.5C 361.372,77.7946 363.038,77.6279 364.5,76C 362.382,74.9509 360.716,73.4509 359.5,71.5 Z"/></g>
<g><path style="opacity:0.573" fill="#b095b2" d="M 210.5,72.5 C 210.573,74.0269 209.906,75.0269 208.5,75.5C 208.427,73.9731 209.094,72.9731 210.5,72.5 Z"/></g>
<g><path style="opacity:1" fill="#a02b40" d="M 338.5,73.5 C 338.802,76.0593 338.468,78.3926 337.5,80.5C 334.918,80.9746 332.918,80.3079 331.5,78.5C 331.54,75.0124 332.207,71.6791 333.5,68.5C 334.434,67.4324 334.768,66.099 334.5,64.5C 336.199,64.3398 337.866,64.5065 339.5,65C 338.556,67.7191 338.223,70.5525 338.5,73.5 Z"/></g>
<g><path style="opacity:1" fill="#834e84" d="M 132.5,70.5 C 121.951,77.2963 112.285,85.2963 103.5,94.5C 103.5,92.8333 103.5,91.1667 103.5,89.5C 104.956,88.094 107.29,86.9274 110.5,86C 108.699,85.6827 108.366,85.016 109.5,84C 110.793,83.51 112.127,83.3433 113.5,83.5C 113.5,82.1667 113.5,80.8333 113.5,79.5C 114.675,79.719 115.675,79.3857 116.5,78.5C 115.359,77.5745 115.359,76.7412 116.5,76C 120.197,75.8255 123.531,74.6588 126.5,72.5C 125.674,71.549 125.508,70.549 126,69.5C 128.041,70.4231 130.208,70.7564 132.5,70.5 Z"/></g>
<g><path style="opacity:0.125" fill="#f0e3e6" d="M 353.5,76.5 C 353.56,75.9569 353.893,75.6236 354.5,75.5C 355.386,76.325 355.719,77.325 355.5,78.5C 355.167,78.5 354.833,78.5 354.5,78.5C 354.672,77.5084 354.338,76.8417 353.5,76.5 Z"/></g>
<g><path style="opacity:1" fill="#a63848" d="M 363.5,65.5 C 363.263,66.791 363.596,67.791 364.5,68.5C 372.012,70.7689 373.345,74.9356 368.5,81C 364.615,83.0661 360.949,82.8995 357.5,80.5C 357.232,78.901 357.566,77.5676 358.5,76.5C 358.833,76.5 359.167,76.5 359.5,76.5C 359.611,77.1174 359.944,77.6174 360.5,78C 362.473,78.4955 364.473,78.6621 366.5,78.5C 366.662,76.4727 366.495,74.4727 366,72.5C 365.439,73.0219 364.772,73.3552 364,73.5C 362.594,72.5862 361.094,71.9195 359.5,71.5C 358.599,67.7593 359.932,65.7593 363.5,65.5 Z"/></g>
<g><path style="opacity:1" fill="#9f2a3f" d="M 266.5,76.5 C 267.702,77.4054 269.036,77.4054 270.5,76.5C 272.048,76.1788 272.715,75.1788 272.5,73.5C 273.5,73.5 274.5,73.5 275.5,73.5C 275.351,72.448 275.517,71.448 276,70.5C 276.495,72.4727 276.662,74.4727 276.5,76.5C 274.692,76.4914 273.025,76.9914 271.5,78C 271.957,78.414 272.291,78.914 272.5,79.5C 268.825,80.6834 265.159,80.6834 261.5,79.5C 258.833,75.8333 258.833,72.1667 261.5,68.5C 262.473,67.2086 263.473,67.2086 264.5,68.5C 265.168,71.3056 265.834,73.9723 266.5,76.5 Z"/></g>
<g><path style="opacity:1" fill="#b25866" d="M 286.5,71.5 C 284.835,76.501 286.168,77.501 290.5,74.5C 291.988,76.8454 293.988,77.1788 296.5,75.5C 295.732,78.5616 293.732,80.2283 290.5,80.5C 289.216,78.3862 287.216,77.3862 284.5,77.5C 284.025,74.9179 284.692,72.9179 286.5,71.5 Z"/></g>
<g><path style="opacity:0.761" fill="#b797b9" d="M 95.5,77.5 C 95.2624,79.4044 94.2624,80.7377 92.5,81.5C 92.7376,79.5956 93.7376,78.2623 95.5,77.5 Z"/></g>
<g><path style="opacity:1" fill="#b6626f" d="M 300.5,68.5 C 300.5,71.5 300.5,74.5 300.5,77.5C 301.5,77.5 302.5,77.5 303.5,77.5C 303.5,78.5 303.5,79.5 303.5,80.5C 306.187,80.6641 308.854,80.4974 311.5,80C 309.111,79.2612 307.111,78.0946 305.5,76.5C 308.277,77.4467 310.277,76.4467 311.5,73.5C 311.5,75.1667 311.5,76.8333 311.5,78.5C 312.5,78.5 313.5,78.5 314.5,78.5C 314.468,76.3812 315.468,75.0478 317.5,74.5C 316.051,79.6611 312.551,82.3277 307,82.5C 301.125,81.7504 298.292,78.4171 298.5,72.5C 299.167,71.1667 299.833,69.8333 300.5,68.5 Z"/></g>
<g><path style="opacity:0.384" fill="#d4acb7" d="M 326.5,73.5 C 326.5,74.5 326.5,75.5 326.5,76.5C 327.5,76.5 328.5,76.5 329.5,76.5C 329.768,78.099 329.434,79.4324 328.5,80.5C 328.5,79.5 328.5,78.5 328.5,77.5C 327.5,77.5 326.5,77.5 325.5,77.5C 325.232,75.901 325.566,74.5676 326.5,73.5 Z"/></g>
<g><path style="opacity:1" fill="#bb6977" d="M 348.5,75.5 C 350.042,76.3007 351.708,76.634 353.5,76.5C 354.338,76.8417 354.672,77.5084 354.5,78.5C 354.5,79.5 354.5,80.5 354.5,81.5C 352.738,81.3573 351.071,81.6906 349.5,82.5C 347.885,81.846 346.218,81.346 344.5,81C 343.177,80.1841 342.511,79.0174 342.5,77.5C 343.995,77.4148 344.995,78.0815 345.5,79.5C 348.086,80.48 350.753,80.8134 353.5,80.5C 353.5,79.5 353.5,78.5 353.5,77.5C 351.219,77.9227 349.552,77.256 348.5,75.5 Z"/></g>
<g><path style="opacity:0.98" fill="#bf8993" d="M 358.5,76.5 C 357.566,77.5676 357.232,78.901 357.5,80.5C 356.5,80.1667 355.833,79.5 355.5,78.5C 356.158,77.6016 356.824,76.6016 357.5,75.5C 358.107,75.6236 358.44,75.9569 358.5,76.5 Z"/></g>
<g><path style="opacity:0.984" fill="#bb7784" d="M 139.5,76.5 C 139.975,79.3126 138.975,81.3126 136.5,82.5C 137.508,80.4561 138.508,78.4561 139.5,76.5 Z"/></g>
<g><path style="opacity:0.004" fill="#dfc0c8" d="M 381.5,78.5 C 382.5,78.8333 383.167,79.5 383.5,80.5C 382.167,80.5 381.5,79.8333 381.5,78.5 Z"/></g>
<g><path style="opacity:0.604" fill="#c1919f" d="M 238.5,79.5 C 240.265,80.4614 242.265,80.7947 244.5,80.5C 242.307,81.7969 239.973,81.7969 237.5,80.5C 237.624,79.8933 237.957,79.56 238.5,79.5 Z"/></g>
<g><path style="opacity:0.496" fill="#c792a1" d="M 256.5,78.5 C 257.404,79.209 257.737,80.209 257.5,81.5C 254.941,81.8016 252.607,81.4682 250.5,80.5C 253.082,80.9746 255.082,80.3079 256.5,78.5 Z"/></g>
<g><path style="opacity:0.579" fill="#bf8c9a" d="M 279.5,76.5 C 279.5,77.8333 279.5,79.1667 279.5,80.5C 283.167,80.5 286.833,80.5 290.5,80.5C 286.702,81.4834 282.702,81.8168 278.5,81.5C 278.216,79.5853 278.549,77.9187 279.5,76.5 Z"/></g>
<g><path style="opacity:0.58" fill="#c18a9a" d="M 331.5,78.5 C 332.918,80.3079 334.918,80.9746 337.5,80.5C 335.393,81.4682 333.059,81.8016 330.5,81.5C 330.263,80.209 330.596,79.209 331.5,78.5 Z"/></g>
<g><path style="opacity:0.918" fill="#c37886" d="M 390.5,74.5 C 391.451,75.9187 391.784,77.5853 391.5,79.5C 392.791,79.2627 393.791,79.596 394.5,80.5C 392.184,81.1599 389.851,81.8266 387.5,82.5C 385.829,82.3318 384.496,81.6651 383.5,80.5C 385.833,80.5 388.167,80.5 390.5,80.5C 390.5,79.5 390.5,78.5 390.5,77.5C 389.209,77.7373 388.209,77.404 387.5,76.5C 389.179,76.7148 390.179,76.0481 390.5,74.5 Z"/></g>
<g><path style="opacity:0.592" fill="#c18a99" d="M 400.5,79.5 C 401.043,79.56 401.376,79.8933 401.5,80.5C 399.027,81.7969 396.693,81.7969 394.5,80.5C 396.735,80.7947 398.735,80.4614 400.5,79.5 Z"/></g>
<g><path style="opacity:1" fill="#713775" d="M 183.5,69.5 C 183.423,73.1461 182.423,76.4794 180.5,79.5C 181.326,80.451 181.492,81.451 181,82.5C 178.491,84.6479 175.991,86.6479 173.5,88.5C 176.582,82.001 179.915,75.6676 183.5,69.5 Z"/></g>
<g><path style="opacity:1" fill="#9c769e" d="M 214.5,80.5 C 214.25,82.674 213.25,84.3406 211.5,85.5C 211.241,83.0107 212.241,81.344 214.5,80.5 Z"/></g>
<g><path style="opacity:0.635" fill="#a986ab" d="M 91.5,82.5 C 91.573,84.0269 90.9063,85.0269 89.5,85.5C 89.427,83.9731 90.0937,82.9731 91.5,82.5 Z"/></g>
<g><path style="opacity:0.447" fill="#d1a6b2" d="M 136.5,82.5 C 136.573,84.0269 135.906,85.0269 134.5,85.5C 134.427,83.9731 135.094,82.9731 136.5,82.5 Z"/></g>
<g><path style="opacity:1" fill="#a94151" d="M 382.5,89.5 C 380.621,90.3414 378.621,90.6747 376.5,90.5C 376.5,89.5 376.5,88.5 376.5,87.5C 378.279,85.6565 380.612,84.9898 383.5,85.5C 383.567,86.9587 383.234,88.2921 382.5,89.5 Z"/></g>
<g><path style="opacity:0.631" fill="#be7889" d="M 253.5,97.5 C 252.523,94.7131 252.19,91.7131 252.5,88.5C 250.076,88.1924 247.743,88.5258 245.5,89.5C 245.121,91.2131 244.121,92.2131 242.5,92.5C 242.751,90.8297 243.418,89.3297 244.5,88C 247.482,87.502 250.482,87.3354 253.5,87.5C 253.5,90.8333 253.5,94.1667 253.5,97.5 Z"/></g>
<g><path style="opacity:0.192" fill="#e6d7db" d="M 285.5,88.5 C 286.209,87.596 287.209,87.2627 288.5,87.5C 288.737,88.791 288.404,89.791 287.5,90.5C 287.5,89.1667 286.833,88.5 285.5,88.5 Z"/></g>
<g><path style="opacity:0.722" fill="#c38393" d="M 132.5,87.5 C 131.5,90.5 129.5,92.5 126.5,93.5C 128.167,91.1667 130.167,89.1667 132.5,87.5 Z"/></g>
<g><path style="opacity:1" fill="#7f4f82" d="M 89.5,85.5 C 88.3282,89.6582 86.3282,93.3249 83.5,96.5C 83.1667,96.5 82.8333,96.5 82.5,96.5C 84.0875,92.3171 86.4208,88.6505 89.5,85.5 Z"/></g>
<g><path style="opacity:0.333" fill="#c3afc4" d="M 173.5,88.5 C 173.573,90.0269 172.906,91.0269 171.5,91.5C 171.427,89.9731 172.094,88.9731 173.5,88.5 Z"/></g>
<g><path style="opacity:0.675" fill="#c28696" d="M 285.5,88.5 C 284.074,89.3412 282.74,90.3412 281.5,91.5C 281.5,90.5 281.5,89.5 281.5,88.5C 282.833,88.5 284.167,88.5 285.5,88.5 Z"/></g>
<g><path style="opacity:1" fill="#a4394b" d="M 372.5,94.5 C 372.833,97.5 371.5,98.8333 368.5,98.5C 368.405,100.786 367.738,102.786 366.5,104.5C 365.908,101.873 365.575,99.2062 365.5,96.5C 366.675,96.719 367.675,96.3857 368.5,95.5C 367.689,90.2245 366.022,89.5578 363.5,93.5C 363.232,91.901 363.566,90.5676 364.5,89.5C 366.144,89.7135 367.644,89.3802 369,88.5C 369.495,90.4727 369.662,92.4727 369.5,94.5C 370.5,94.5 371.5,94.5 372.5,94.5 Z"/></g>
<g><path style="opacity:0.325" fill="#d6b0bb" d="M 376.5,87.5 C 376.5,88.5 376.5,89.5 376.5,90.5C 378.621,90.6747 380.621,90.3414 382.5,89.5C 380.721,91.3435 378.388,92.0102 375.5,91.5C 375.232,89.901 375.566,88.5676 376.5,87.5 Z"/></g>
<g><path style="opacity:1" fill="#62166a" d="M 130.5,66.5 C 131.6,67.6049 132.267,68.9382 132.5,70.5C 130.208,70.7564 128.041,70.4231 126,69.5C 125.508,70.549 125.674,71.549 126.5,72.5C 123.531,74.6588 120.197,75.8255 116.5,76C 115.359,76.7412 115.359,77.5745 116.5,78.5C 115.675,79.3857 114.675,79.719 113.5,79.5C 113.5,80.8333 113.5,82.1667 113.5,83.5C 112.127,83.3433 110.793,83.51 109.5,84C 108.366,85.016 108.699,85.6827 110.5,86C 107.29,86.9274 104.956,88.094 103.5,89.5C 103.5,91.1667 103.5,92.8333 103.5,94.5C 103.167,95.5 102.5,96.1667 101.5,96.5C 100.458,95.2089 99.2917,95.2089 98,96.5C 97.5065,98.1341 97.3398,99.8008 97.5,101.5C 96.325,101.281 95.325,101.614 94.5,102.5C 93.6518,104.409 93.3184,106.409 93.5,108.5C 93.7373,109.791 93.404,110.791 92.5,111.5C 91.9965,107.665 90.9965,107.665 89.5,111.5C 89.1667,111 88.8333,110.5 88.5,110C 89.0092,107.287 89.3425,104.62 89.5,102C 88.5721,100.024 87.4054,98.1911 86,96.5C 84.6081,98.8418 83.7748,98.8418 83.5,96.5C 86.3282,93.3249 88.3282,89.6582 89.5,85.5C 90.9063,85.0269 91.573,84.0269 91.5,82.5C 91.5,81.8333 91.8333,81.5 92.5,81.5C 94.2624,80.7377 95.2624,79.4044 95.5,77.5C 96.1667,76.1667 97.1667,75.1667 98.5,74.5C 100.404,74.2624 101.738,73.2624 102.5,71.5C 105.923,71.876 108.256,70.5426 109.5,67.5C 113.467,65.4267 117.801,64.4267 122.5,64.5C 125.527,64.2865 128.193,64.9532 130.5,66.5 Z"/></g>
<g><path style="opacity:0.529" fill="#cea4af" d="M 265.5,96.5 C 264.012,94.1546 262.012,93.8212 259.5,95.5C 261.279,93.6565 263.612,92.9898 266.5,93.5C 266.737,94.791 266.404,95.791 265.5,96.5 Z"/></g>
<g><path style="opacity:0.698" fill="#c48896" d="M 281.5,92.5 C 281.179,94.0481 280.179,94.7148 278.5,94.5C 279.29,93.5987 280.29,92.9321 281.5,92.5 Z"/></g>
<g><path style="opacity:0.522" fill="#d0a1ad" d="M 287.5,91.5 C 287.821,93.0481 288.821,93.7148 290.5,93.5C 290.737,94.791 290.404,95.791 289.5,96.5C 289.179,94.9519 288.179,94.2852 286.5,94.5C 286.263,93.209 286.596,92.209 287.5,91.5 Z"/></g>
<g><path style="opacity:0.718" fill="#bf7d8d" d="M 312.5,94.5 C 317.167,93.1667 321.833,93.1667 326.5,94.5C 321.758,95.2413 317.092,95.2413 312.5,94.5 Z"/></g>
<g><path style="opacity:0.561" fill="#bf8795" d="M 363.5,93.5 C 362.71,94.4013 361.71,95.0679 360.5,95.5C 360.821,93.9519 361.821,93.2852 363.5,93.5 Z"/></g>
<g><path style="opacity:0.545" fill="#d0a1ae" d="M 372.5,94.5 C 371.5,94.5 370.5,94.5 369.5,94.5C 369.662,92.4727 369.495,90.4727 369,88.5C 367.644,89.3802 366.144,89.7135 364.5,89.5C 366.214,88.2616 368.214,87.595 370.5,87.5C 370.5,89.5 370.5,91.5 370.5,93.5C 372.401,93.2465 373.067,93.5798 372.5,94.5 Z"/></g>
<g><path style="opacity:0.467" fill="#cda1ad" d="M 378.5,93.5 C 377.791,94.404 376.791,94.7373 375.5,94.5C 375.737,95.791 375.404,96.791 374.5,97.5C 374.5,96.1667 374.5,94.8333 374.5,93.5C 375.833,93.5 377.167,93.5 378.5,93.5 Z"/></g>
<g><path style="opacity:0.02" fill="#dfc0c8" d="M 270.5,94.5 C 273.061,93.2329 275.728,93.2329 278.5,94.5C 278.433,95.9587 278.766,97.2921 279.5,98.5C 278.1,97.9002 277.1,96.9002 276.5,95.5C 274.735,94.5386 272.735,94.2053 270.5,94.5 Z"/></g>
<g><path style="opacity:0.525" fill="#c58292" d="M 419.5,94.5 C 415.512,94.8305 411.678,94.8305 408,94.5C 406.566,94.8618 405.399,95.5285 404.5,96.5C 404.5,95.5 404.5,94.5 404.5,93.5C 409.695,93.1795 414.695,93.5128 419.5,94.5 Z"/></g>
<g><path style="opacity:1" fill="#b25d6b" d="M 304.5,110.5 C 305.937,105.972 306.604,101.306 306.5,96.5C 304.585,96.2155 302.919,96.5489 301.5,97.5C 301.167,97.5 300.833,97.5 300.5,97.5C 299.609,98.1098 298.609,98.4431 297.5,98.5C 298.975,96.5905 300.975,95.4238 303.5,95C 300.833,94.3333 298.167,94.3333 295.5,95C 294.61,97.3913 292.943,98.8913 290.5,99.5C 291.203,97.2843 292.536,95.451 294.5,94C 306.698,91.196 310.865,95.696 307,107.5C 306.148,108.571 305.315,109.571 304.5,110.5 Z"/></g>
<g><path style="opacity:1" fill="#b35c6c" d="M 358.5,93.5 C 358.5,93.8333 358.5,94.1667 358.5,94.5C 353.275,94.186 348.275,94.8527 343.5,96.5C 344.058,95.2101 345.058,94.3768 346.5,94C 350.486,93.5012 354.486,93.3345 358.5,93.5 Z"/></g>
<g><path style="opacity:1" fill="#8a538d" d="M 204.5,95.5 C 203.219,98.4474 201.219,100.781 198.5,102.5C 197.677,100.545 197.51,98.5454 198,96.5C 198.308,97.3081 198.808,97.9747 199.5,98.5C 199.585,97.0682 200.585,95.7349 202.5,94.5C 203.183,94.8627 203.85,95.1961 204.5,95.5 Z"/></g>
<g><path style="opacity:0.008" fill="#efe0e4" d="M 358.5,93.5 C 359.167,94.1667 359.833,94.8333 360.5,95.5C 360.904,96.7564 361.571,97.9231 362.5,99C 362.43,99.7648 362.097,100.265 361.5,100.5C 361.19,98.8564 360.19,97.8564 358.5,97.5C 358.5,96.5 358.5,95.5 358.5,94.5C 358.5,94.1667 358.5,93.8333 358.5,93.5 Z"/></g>
<g><path style="opacity:0.561" fill="#c89ca7" d="M 387.5,94.5 C 386.833,95.8333 385.833,96.8333 384.5,97.5C 384.5,95.5 385.5,94.5 387.5,94.5 Z"/></g>
<g><path style="opacity:1" fill="#ad4c5a" d="M 148.5,98.5 C 146.215,100.118 144.215,102.118 142.5,104.5C 143.63,105.622 144.297,106.956 144.5,108.5C 142.31,107.025 140.977,105.025 140.5,102.5C 140.389,101.883 140.056,101.383 139.5,101C 142.107,98.8951 145.107,98.0617 148.5,98.5 Z"/></g>
<g><path style="opacity:1" fill="#a02c40" d="M 358.5,94.5 C 358.5,95.5 358.5,96.5 358.5,97.5C 357.809,102.26 356.809,106.926 355.5,111.5C 352.921,111.135 350.588,111.135 348.5,111.5C 346.712,112.622 344.712,112.789 342.5,112C 341.333,111.5 340.5,110.667 340,109.5C 339.333,106.5 339.333,103.5 340,100.5C 340.66,98.6763 341.827,97.343 343.5,96.5C 348.275,94.8527 353.275,94.186 358.5,94.5 Z M 349.5,98.5 C 351.176,99.1834 351.843,100.517 351.5,102.5C 350.71,103.609 350.21,104.942 350,106.5C 348.989,107.337 347.822,107.67 346.5,107.5C 346.298,105.05 346.631,102.717 347.5,100.5C 348.5,100.167 349.167,99.5 349.5,98.5 Z"/></g>
<g><path style="opacity:0.016" fill="#efe0e4" d="M 349.5,98.5 C 349.167,99.5 348.5,100.167 347.5,100.5C 347.5,99.1667 348.167,98.5 349.5,98.5 Z"/></g>
<g><path style="opacity:0.196" fill="#c7b3c8" d="M 82.5,97.5 C 82.3404,99.153 81.6737,100.486 80.5,101.5C 80.2291,99.6203 80.8958,98.287 82.5,97.5 Z"/></g>
<g><path style="opacity:0.149" fill="#e1c4cc" d="M 349.5,98.5 C 350.209,97.596 351.209,97.2627 352.5,97.5C 352.784,99.4147 352.451,101.081 351.5,102.5C 351.843,100.517 351.176,99.1834 349.5,98.5 Z"/></g>
<g><path style="opacity:1" fill="#b04e5d" d="M 126.5,93.5 C 126.5,94.5 126.5,95.5 126.5,96.5C 124.408,96.5614 122.908,97.5614 122,99.5C 121.667,99.1667 121.333,98.8333 121,98.5C 119.881,99.5521 119.381,100.719 119.5,102C 116.753,102.112 114.253,101.946 112,101.5C 111.297,103.929 111.463,106.262 112.5,108.5C 109.53,106.971 108.864,104.638 110.5,101.5C 115.855,98.8223 121.189,96.1557 126.5,93.5 Z"/></g>
<g><path style="opacity:0.314" fill="#d6afb8" d="M 239.5,98.5 C 239.573,100.027 238.906,101.027 237.5,101.5C 237.427,99.9731 238.094,98.9731 239.5,98.5 Z"/></g>
<g><path style="opacity:1" fill="#a02d40" d="M 335.5,110.5 C 332.988,112.179 330.988,111.845 329.5,109.5C 329.788,106.061 330.454,102.728 331.5,99.5C 330.947,97.4482 329.947,97.1148 328.5,98.5C 326.744,99.5521 326.077,101.219 326.5,103.5C 326.675,105.621 326.341,107.621 325.5,109.5C 323.886,111.075 321.886,111.741 319.5,111.5C 319.5,110.5 319.5,109.5 319.5,108.5C 319.878,106.354 320.212,104.187 320.5,102C 320.392,100.319 319.725,99.1522 318.5,98.5C 316.744,99.5521 316.077,101.219 316.5,103.5C 316.706,106.495 316.04,109.162 314.5,111.5C 312.833,111.5 311.167,111.5 309.5,111.5C 309.5,110.5 309.5,109.5 309.5,108.5C 309.232,106.901 309.566,105.568 310.5,104.5C 311.117,104.389 311.617,104.056 312,103.5C 312.498,100.518 312.665,97.5184 312.5,94.5C 317.092,95.2413 321.758,95.2413 326.5,94.5C 330.594,92.8269 334.427,93.1602 338,95.5C 337.94,100.713 337.107,105.713 335.5,110.5 Z"/></g>
<g><path style="opacity:0.525" fill="#d5acb7" d="M 328.5,98.5 C 327.976,100.306 327.309,101.972 326.5,103.5C 326.077,101.219 326.744,99.5521 328.5,98.5 Z"/></g>
<g><path style="opacity:0.404" fill="#cb9eaa" d="M 328.5,98.5 C 329.947,97.1148 330.947,97.4482 331.5,99.5C 330.609,98.8902 329.609,98.5569 328.5,98.5 Z"/></g>
<g><path style="opacity:1" fill="#a74b5c" d="M 312.5,94.5 C 312.665,97.5184 312.498,100.518 312,103.5C 311.617,104.056 311.117,104.389 310.5,104.5C 310.549,100.922 311.215,97.5885 312.5,94.5 Z"/></g>
<g><path style="opacity:0.094" fill="#e5ccd1" d="M 318.5,98.5 C 317.976,100.306 317.309,101.972 316.5,103.5C 316.077,101.219 316.744,99.5521 318.5,98.5 Z"/></g>
<g><path style="opacity:0.259" fill="#ae95af" d="M 206.5,109.5 C 206.083,106.841 205.083,104.508 203.5,102.5C 204.008,100.767 204.841,100.434 206,101.5C 206.497,104.146 206.664,106.813 206.5,109.5 Z"/></g>
<g><path style="opacity:1" fill="#a13043" d="M 285.5,88.5 C 286.833,88.5 287.5,89.1667 287.5,90.5C 287.5,90.8333 287.5,91.1667 287.5,91.5C 286.596,92.209 286.263,93.209 286.5,94.5C 288.179,94.2852 289.179,94.9519 289.5,96.5C 288.817,98.1765 287.483,98.8432 285.5,98.5C 285.296,101.518 284.963,104.518 284.5,107.5C 285.806,108.467 286.473,109.801 286.5,111.5C 283.531,113.006 280.698,112.673 278,110.5C 277.527,106.388 278.027,102.388 279.5,98.5C 278.766,97.2921 278.433,95.9587 278.5,94.5C 280.179,94.7148 281.179,94.0481 281.5,92.5C 281.5,92.1667 281.5,91.8333 281.5,91.5C 282.74,90.3412 284.074,89.3412 285.5,88.5 Z"/></g>
<g><path style="opacity:1" fill="#9e283e" d="M 297.5,98.5 C 297.672,99.4916 297.338,100.158 296.5,100.5C 294.466,102.655 294.133,104.988 295.5,107.5C 298.63,108.433 300.63,107.099 301.5,103.5C 302.833,101.5 302.833,99.5 301.5,97.5C 302.919,96.5489 304.585,96.2155 306.5,96.5C 306.604,101.306 305.937,105.972 304.5,110.5C 300.354,112.886 296.02,113.052 291.5,111C 289.955,109.178 289.288,107.011 289.5,104.5C 289.507,102.631 289.84,100.964 290.5,99.5C 292.943,98.8913 294.61,97.3913 295.5,95C 298.167,94.3333 300.833,94.3333 303.5,95C 300.975,95.4238 298.975,96.5905 297.5,98.5 Z M 300.5,97.5 C 301.341,99.3792 301.675,101.379 301.5,103.5C 300.63,107.099 298.63,108.433 295.5,107.5C 295.674,105.139 296.007,102.806 296.5,100.5C 297.338,100.158 297.672,99.4916 297.5,98.5C 298.609,98.4431 299.609,98.1098 300.5,97.5 Z"/></g>
<g><path style="opacity:0.188" fill="#d1a8b2" d="M 300.5,97.5 C 300.833,97.5 301.167,97.5 301.5,97.5C 302.833,99.5 302.833,101.5 301.5,103.5C 301.675,101.379 301.341,99.3792 300.5,97.5 Z"/></g>
<g><path style="opacity:0.675" fill="#c07f90" d="M 296.5,100.5 C 296.007,102.806 295.674,105.139 295.5,107.5C 294.133,104.988 294.466,102.655 296.5,100.5 Z"/></g>
<g><path style="opacity:1" fill="#9e283d" d="M 419.5,94.5 C 420.161,96.134 420.494,97.9674 420.5,100C 420.579,103.451 419.913,106.618 418.5,109.5C 416.318,112.015 414.318,112.015 412.5,109.5C 413.913,106.781 414.58,103.781 414.5,100.5C 414.027,99.0937 413.027,98.427 411.5,98.5C 409.824,99.1834 409.157,100.517 409.5,102.5C 409.324,105.727 408.657,108.727 407.5,111.5C 405.833,111.5 404.167,111.5 402.5,111.5C 402.5,110.167 402.5,108.833 402.5,107.5C 402.911,103.779 403.578,100.112 404.5,96.5C 405.399,95.5285 406.566,94.8618 408,94.5C 411.678,94.8305 415.512,94.8305 419.5,94.5 Z"/></g>
<g><path style="opacity:0.035" fill="#e9d5da" d="M 411.5,98.5 C 411.011,99.9952 410.345,101.329 409.5,102.5C 409.157,100.517 409.824,99.1834 411.5,98.5 Z"/></g>
<g><path style="opacity:1" fill="#87568a" d="M 101.5,96.5 C 99.1923,100.795 96.5256,104.795 93.5,108.5C 93.3184,106.409 93.6518,104.409 94.5,102.5C 95.325,101.614 96.325,101.281 97.5,101.5C 97.3398,99.8008 97.5065,98.1341 98,96.5C 99.2917,95.2089 100.458,95.2089 101.5,96.5 Z"/></g>
<g><path style="opacity:1" fill="#845387" d="M 198.5,102.5 C 196.833,104.833 194.833,106.833 192.5,108.5C 191.832,103.839 193.832,101.839 198.5,102.5 Z"/></g>
<g><path style="opacity:0.525" fill="#cd9da9" d="M 374.5,98.5 C 374.59,101.152 373.924,103.485 372.5,105.5C 372.41,102.848 373.076,100.515 374.5,98.5 Z"/></g>
<g><path style="opacity:1" fill="#a23243" d="M 378.5,93.5 C 379.5,93.5 380.5,93.5 381.5,93.5C 380.767,99.7514 379.434,105.751 377.5,111.5C 374.918,111.975 372.918,111.308 371.5,109.5C 371.433,108.041 371.766,106.708 372.5,105.5C 373.924,103.485 374.59,101.152 374.5,98.5C 374.5,98.1667 374.5,97.8333 374.5,97.5C 375.404,96.791 375.737,95.791 375.5,94.5C 376.791,94.7373 377.791,94.404 378.5,93.5 Z"/></g>
<g><path style="opacity:0.906" fill="#c78b98" d="M 414.5,100.5 C 414.58,103.781 413.913,106.781 412.5,109.5C 412.42,106.219 413.087,103.219 414.5,100.5 Z"/></g>
<g><path style="opacity:1" fill="#991b37" d="M 253.5,97.5 C 253.5,97.8333 253.5,98.1667 253.5,98.5C 253.294,102.898 253.627,107.232 254.5,111.5C 252.5,111.5 250.5,111.5 248.5,111.5C 248.5,109.5 248.5,107.5 248.5,105.5C 245.302,104.964 242.635,105.631 240.5,107.5C 240.34,109.153 239.674,110.486 238.5,111.5C 236.219,111.923 234.552,111.256 233.5,109.5C 234.326,106.515 235.659,103.849 237.5,101.5C 238.906,101.027 239.573,100.027 239.5,98.5C 239.992,96.1815 240.992,94.1815 242.5,92.5C 244.121,92.2131 245.121,91.2131 245.5,89.5C 247.743,88.5258 250.076,88.1924 252.5,88.5C 252.19,91.7131 252.523,94.7131 253.5,97.5 Z M 246.5,94.5 C 247.461,96.2646 247.795,98.2646 247.5,100.5C 246.209,100.737 245.209,100.404 244.5,99.5C 245.537,98.0697 246.204,96.403 246.5,94.5 Z"/></g>
<g><path style="opacity:0.502" fill="#d2a1ae" d="M 246.5,94.5 C 246.56,93.9569 246.893,93.6236 247.5,93.5C 248.48,96.0865 248.813,98.7531 248.5,101.5C 246.712,101.785 245.045,101.452 243.5,100.5C 243.624,99.8933 243.957,99.56 244.5,99.5C 245.209,100.404 246.209,100.737 247.5,100.5C 247.795,98.2646 247.461,96.2646 246.5,94.5 Z"/></g>
<g><path style="opacity:1" fill="#9a1c37" d="M 366.5,104.5 C 366.5,105.5 366.5,106.5 366.5,107.5C 367.9,108.1 368.9,109.1 369.5,110.5C 366.946,111.388 364.279,111.721 361.5,111.5C 360.609,110.739 359.942,109.739 359.5,108.5C 360.295,105.856 360.962,103.189 361.5,100.5C 362.097,100.265 362.43,99.7648 362.5,99C 361.571,97.9231 360.904,96.7564 360.5,95.5C 361.71,95.0679 362.71,94.4013 363.5,93.5C 366.022,89.5578 367.689,90.2245 368.5,95.5C 367.675,96.3857 366.675,96.719 365.5,96.5C 365.575,99.2062 365.908,101.873 366.5,104.5 Z"/></g>
<g><path style="opacity:0.788" fill="#d49fac" d="M 351.5,102.5 C 352.5,107.509 350.833,109.176 346.5,107.5C 347.822,107.67 348.989,107.337 350,106.5C 350.21,104.942 350.71,103.609 351.5,102.5 Z"/></g>
<g><path style="opacity:0.278" fill="#dcbfc7" d="M 284.5,107.5 C 285.5,107.5 286.5,107.5 287.5,107.5C 287.768,109.099 287.434,110.432 286.5,111.5C 286.473,109.801 285.806,108.467 284.5,107.5 Z"/></g>
<g><path style="opacity:0.804" fill="#ac88ad" d="M 199.5,106.5 C 199.5,108.5 198.5,109.5 196.5,109.5C 197.167,108.167 198.167,107.167 199.5,106.5 Z"/></g>
<g><path style="opacity:0.208" fill="#e6d2d8" d="M 254.5,111.5 C 252.393,112.468 250.059,112.802 247.5,112.5C 247.5,110.5 247.5,108.5 247.5,106.5C 245.05,106.298 242.717,106.631 240.5,107.5C 242.635,105.631 245.302,104.964 248.5,105.5C 248.5,107.5 248.5,109.5 248.5,111.5C 250.5,111.5 252.5,111.5 254.5,111.5 Z"/></g>
<g><path style="opacity:0.796" fill="#d8a8b1" d="M 253.5,98.5 C 254.261,102.182 254.928,106.015 255.5,110C 255.43,110.765 255.097,111.265 254.5,111.5C 253.627,107.232 253.294,102.898 253.5,98.5 Z"/></g>
<g><path style="opacity:1" fill="#a12f42" d="M 265.5,96.5 C 265.308,99.6008 264.642,102.601 263.5,105.5C 264.005,106.919 265.005,107.585 266.5,107.5C 267.75,107.423 268.583,106.756 269,105.5C 269.494,103.866 269.66,102.199 269.5,100.5C 269.325,98.3792 269.659,96.3792 270.5,94.5C 272.735,94.2053 274.735,94.5386 276.5,95.5C 275.768,101.095 274.435,106.429 272.5,111.5C 269.921,111.135 267.588,111.135 265.5,111.5C 261.359,113.467 258.359,112.3 256.5,108C 257.445,103.841 258.445,99.6743 259.5,95.5C 262.012,93.8212 264.012,94.1546 265.5,96.5 Z"/></g>
<g><path style="opacity:0.631" fill="#ca909c" d="M 269.5,100.5 C 269.66,102.199 269.494,103.866 269,105.5C 268.583,106.756 267.75,107.423 266.5,107.5C 267.659,105.145 268.659,102.812 269.5,100.5 Z"/></g>
<g><path style="opacity:1" fill="#651d6d" d="M 82.5,96.5 C 82.8333,96.5 83.1667,96.5 83.5,96.5C 83.7748,98.8418 84.6081,98.8418 86,96.5C 87.4054,98.1911 88.5721,100.024 89.5,102C 89.3425,104.62 89.0092,107.287 88.5,110C 88.8333,110.5 89.1667,111 89.5,111.5C 90.9965,107.665 91.9965,107.665 92.5,111.5C 92.6716,112.492 92.3382,113.158 91.5,113.5C 89.5593,117.069 89.226,120.735 90.5,124.5C 91.4345,125.568 91.7678,126.901 91.5,128.5C 91.5,129.167 91.5,129.833 91.5,130.5C 91.5,131.5 91.5,132.5 91.5,133.5C 89.549,133.773 88.049,133.107 87,131.5C 85.7719,134.233 83.9386,134.9 81.5,133.5C 79.8368,131.507 78.6701,129.174 78,126.5C 77.501,122.179 77.3343,117.846 77.5,113.5C 78.7682,111.095 79.4349,108.428 79.5,105.5C 79.2322,103.901 79.5655,102.568 80.5,101.5C 81.6737,100.486 82.3404,99.153 82.5,97.5C 82.5,97.1667 82.5,96.8333 82.5,96.5 Z"/></g>
<g><path style="opacity:1" fill="#895c8c" d="M 165.5,103.5 C 164.973,106.231 164.14,108.898 163,111.5C 161.887,112.305 160.721,112.972 159.5,113.5C 161,109.827 163,106.494 165.5,103.5 Z"/></g>
<g><path style="opacity:1" fill="#7d4b81" d="M 192.5,108.5 C 190.393,110.727 188.06,112.727 185.5,114.5C 185.481,109.984 187.814,107.984 192.5,108.5 Z"/></g>
<g><path style="opacity:0.722" fill="#cb99a6" d="M 114.5,110.5 C 116.027,110.427 117.027,111.094 117.5,112.5C 115.973,112.573 114.973,111.906 114.5,110.5 Z"/></g>
<g><path style="opacity:1" fill="#a43749" d="M 384.5,97.5 C 385.833,96.8333 386.833,95.8333 387.5,94.5C 399.737,91.916 403.57,96.5827 399,108.5C 395.257,112.259 390.757,113.426 385.5,112C 380.581,107.369 380.248,102.535 384.5,97.5 Z M 391.5,97.5 C 393.722,97.5587 394.722,98.7253 394.5,101C 394.142,104.221 392.642,106.721 390,108.5C 387.883,104.528 388.383,100.862 391.5,97.5 Z"/></g>
<g><path style="opacity:0.337" fill="#c4b0c6" d="M 79.5,105.5 C 79.4349,108.428 78.7682,111.095 77.5,113.5C 77.2938,110.505 77.9605,107.838 79.5,105.5 Z"/></g>
<g><path style="opacity:0.235" fill="#d7c2c8" d="M 233.5,109.5 C 234.552,111.256 236.219,111.923 238.5,111.5C 236.735,112.461 234.735,112.795 232.5,112.5C 232.263,111.209 232.596,110.209 233.5,109.5 Z"/></g>
<g><path style="opacity:0.298" fill="#dac2c8" d="M 265.5,111.5 C 267.588,111.135 269.921,111.135 272.5,111.5C 270.274,112.756 267.941,112.756 265.5,111.5 Z"/></g>
<g><path style="opacity:0.243" fill="#d7c3c8" d="M 309.5,108.5 C 309.5,109.5 309.5,110.5 309.5,111.5C 311.167,111.5 312.833,111.5 314.5,111.5C 312.735,112.461 310.735,112.795 308.5,112.5C 308.232,110.901 308.566,109.568 309.5,108.5 Z"/></g>
<g><path style="opacity:0.255" fill="#dec8cd" d="M 319.5,108.5 C 319.5,109.5 319.5,110.5 319.5,111.5C 321.886,111.741 323.886,111.075 325.5,109.5C 325.5,110.5 325.5,111.5 325.5,112.5C 323.167,112.5 320.833,112.5 318.5,112.5C 318.232,110.901 318.566,109.568 319.5,108.5 Z"/></g>
<g><path style="opacity:0.059" fill="#dfcacf" d="M 329.5,109.5 C 330.988,111.845 332.988,112.179 335.5,110.5C 333.721,112.344 331.388,113.01 328.5,112.5C 328.263,111.209 328.596,110.209 329.5,109.5 Z"/></g>
<g><path style="opacity:0.267" fill="#d9bdc5" d="M 348.5,111.5 C 350.588,111.135 352.921,111.135 355.5,111.5C 353.274,112.756 350.941,112.756 348.5,111.5 Z"/></g>
<g><path style="opacity:0.647" fill="#cb9ba7" d="M 369.5,110.5 C 368.666,111.748 367.333,112.415 365.5,112.5C 363.955,112.489 362.622,112.156 361.5,111.5C 364.279,111.721 366.946,111.388 369.5,110.5 Z"/></g>
<g><path style="opacity:0.051" fill="#ecdfe2" d="M 366.5,107.5 C 368.554,107.365 370.221,108.032 371.5,109.5C 372.918,111.308 374.918,111.975 377.5,111.5C 374.67,112.937 372.003,112.604 369.5,110.5C 368.9,109.1 367.9,108.1 366.5,107.5 Z"/></g>
<g><path style="opacity:0.231" fill="#d6b8c0" d="M 402.5,107.5 C 402.5,108.833 402.5,110.167 402.5,111.5C 404.167,111.5 405.833,111.5 407.5,111.5C 405.735,112.461 403.735,112.795 401.5,112.5C 401.216,110.585 401.549,108.919 402.5,107.5 Z"/></g>
<g><path style="opacity:0.267" fill="#d7bfc5" d="M 412.5,109.5 C 414.318,112.015 416.318,112.015 418.5,109.5C 418.5,110.5 418.5,111.5 418.5,112.5C 416.167,112.5 413.833,112.5 411.5,112.5C 411.263,111.209 411.596,110.209 412.5,109.5 Z"/></g>
<g><path style="opacity:0.878" fill="#946e97" d="M 196.5,109.5 C 195.167,112.833 192.833,115.167 189.5,116.5C 191.5,113.833 193.833,111.5 196.5,109.5 Z"/></g>
<g><path style="opacity:1" fill="#651c6c" d="M 203.5,102.5 C 205.083,104.508 206.083,106.841 206.5,109.5C 207.935,116.715 208.602,124.049 208.5,131.5C 208.5,134.833 208.5,138.167 208.5,141.5C 205.833,141.5 203.167,141.5 200.5,141.5C 198.925,139.453 197.925,137.119 197.5,134.5C 197.034,128.214 194.368,123.214 189.5,119.5C 188.167,118.5 188.167,117.5 189.5,116.5C 192.833,115.167 195.167,112.833 196.5,109.5C 198.5,109.5 199.5,108.5 199.5,106.5C 200.5,104.833 201.833,103.5 203.5,102.5 Z"/></g>
<g><path style="opacity:0.451" fill="#c9919d" d="M 117.5,112.5 C 119.749,113.08 121.415,114.413 122.5,116.5C 120.251,115.92 118.585,114.587 117.5,112.5 Z"/></g>
<g><path style="opacity:1" fill="#824e83" d="M 185.5,114.5 C 183.393,116.727 181.06,118.727 178.5,120.5C 178.5,118.833 178.5,117.167 178.5,115.5C 180.806,115.007 183.139,114.674 185.5,114.5 Z"/></g>
<g><path style="opacity:1" fill="#a0374b" d="M 288.5,116.5 C 289.167,116.5 289.833,116.5 290.5,116.5C 291.404,117.209 291.737,118.209 291.5,119.5C 291.158,120.338 290.492,120.672 289.5,120.5C 288.566,119.432 288.232,118.099 288.5,116.5 Z"/></g>
<g><path style="opacity:0.325" fill="#e0cad0" d="M 290.5,116.5 C 291.472,115.249 292.139,115.582 292.5,117.5C 292.457,118.416 292.124,119.083 291.5,119.5C 291.737,118.209 291.404,117.209 290.5,116.5 Z"/></g>
<g><path style="opacity:1" fill="#aa4552" d="M 246.5,118.5 C 247.686,119.961 247.686,121.295 246.5,122.5C 245.508,122.672 244.842,122.338 244.5,121.5C 242.025,120.869 239.691,119.869 237.5,118.5C 240.396,117.225 243.396,117.225 246.5,118.5 Z"/></g>
<g><path style="opacity:0.91" fill="#c8929d" d="M 288.5,116.5 C 288.232,118.099 288.566,119.432 289.5,120.5C 288.503,121.713 287.503,121.546 286.5,120C 287.085,118.698 287.751,117.531 288.5,116.5 Z"/></g>
<g><path style="opacity:0.639" fill="#a486a5" d="M 91.5,113.5 C 91.0578,117.154 90.7244,120.821 90.5,124.5C 89.226,120.735 89.5593,117.069 91.5,113.5 Z"/></g>
<g><path style="opacity:1" fill="#835387" d="M 178.5,120.5 C 176.777,122.218 174.777,123.551 172.5,124.5C 172.461,123.417 172.127,122.417 171.5,121.5C 173.743,120.526 176.076,120.192 178.5,120.5 Z"/></g>
<g><path style="opacity:1" fill="#c0727e" d="M 237.5,118.5 C 239.691,119.869 242.025,120.869 244.5,121.5C 241.812,121.166 239.479,121.832 237.5,123.5C 237.719,122.325 237.386,121.325 236.5,120.5C 235.482,121.193 234.482,121.859 233.5,122.5C 233.833,120.167 235.167,118.833 237.5,118.5 Z"/></g>
<g><path style="opacity:0.62" fill="#ca9fa9" d="M 246.5,118.5 C 247.649,118.791 248.316,119.624 248.5,121C 248.167,121.833 247.833,122.667 247.5,123.5C 246.893,123.376 246.56,123.043 246.5,122.5C 247.686,121.295 247.686,119.961 246.5,118.5 Z"/></g>
<g><path style="opacity:1" fill="#ba7180" d="M 314.5,120.5 C 314.842,119.662 315.508,119.328 316.5,119.5C 317.404,120.209 317.737,121.209 317.5,122.5C 318.183,124.176 319.517,124.843 321.5,124.5C 321.5,125.833 321.5,127.167 321.5,128.5C 320.833,128.167 320.167,127.833 319.5,127.5C 319.611,126.883 319.944,126.383 320.5,126C 319.207,125.51 317.873,125.343 316.5,125.5C 316.923,123.219 316.256,121.552 314.5,120.5 Z"/></g>
<g><path style="opacity:0.196" fill="#e9dcdf" d="M 316.5,119.5 C 317.472,118.249 318.139,118.582 318.5,120.5C 318.457,121.416 318.124,122.083 317.5,122.5C 317.737,121.209 317.404,120.209 316.5,119.5 Z"/></g>
<g><path style="opacity:0.867" fill="#c28b97" d="M 128.5,121.5 C 130.404,121.738 131.738,122.738 132.5,124.5C 130.596,124.262 129.262,123.262 128.5,121.5 Z"/></g>
<g><path style="opacity:0.337" fill="#d2afb6" d="M 152.5,122.5 C 153.906,122.973 154.573,123.973 154.5,125.5C 153.094,125.027 152.427,124.027 152.5,122.5 Z"/></g>
<g><path style="opacity:0.671" fill="#be798a" d="M 314.5,120.5 C 315.244,123.95 313.91,125.616 310.5,125.5C 312.536,124.374 313.87,122.707 314.5,120.5 Z"/></g>
<g><path style="opacity:1" fill="#9c223a" d="M 140.5,102.5 C 140.977,105.025 142.31,107.025 144.5,108.5C 147.669,112.833 150.336,117.5 152.5,122.5C 152.427,124.027 153.094,125.027 154.5,125.5C 155.674,126.514 156.34,127.847 156.5,129.5C 156.427,131.027 157.094,132.027 158.5,132.5C 160.142,135.102 161.808,137.769 163.5,140.5C 163.291,141.086 162.957,141.586 162.5,142C 159.5,142.667 156.5,142.667 153.5,142C 151.676,141.34 150.343,140.173 149.5,138.5C 148.738,136.738 147.404,135.738 145.5,135.5C 141.518,132.848 137.851,129.848 134.5,126.5C 137.144,126.16 139.477,126.827 141.5,128.5C 142.5,127.167 143.5,127.167 144.5,128.5C 145.666,126.635 145.333,124.968 143.5,123.5C 144.167,123.167 144.833,122.833 145.5,122.5C 144.975,121.808 144.308,121.308 143.5,121C 146.767,118.556 146.767,116.723 143.5,115.5C 145.129,112.669 144.629,110.335 142,108.5C 139.63,111.737 136.797,112.237 133.5,110C 134.76,108.887 135.927,108.72 137,109.5C 137.5,108.333 138.333,107.5 139.5,107C 139.167,106.667 138.833,106.333 138.5,106C 139.823,105.184 140.489,104.017 140.5,102.5 Z"/></g>
<g><path style="opacity:0.996" fill="#87558a" d="M 189.5,119.5 C 194.368,123.214 197.034,128.214 197.5,134.5C 194.582,129.667 191.916,124.667 189.5,119.5 Z"/></g>
<g><path style="opacity:1" fill="#c47d86" d="M 261.5,124.5 C 263.027,124.427 264.027,125.094 264.5,126.5C 263.448,126.351 262.448,126.517 261.5,127C 262.423,129.041 262.756,131.208 262.5,133.5C 262.167,133.5 261.833,133.5 261.5,133.5C 261.587,126.862 259.254,125.862 254.5,130.5C 254.179,128.952 253.179,128.285 251.5,128.5C 252.219,126.112 253.885,124.612 256.5,124C 258.387,123.22 260.054,123.387 261.5,124.5 Z"/></g>
<g><path style="opacity:1" fill="#980731" d="M 261.5,124.5 C 260.573,126.476 259.24,126.809 257.5,125.5C 258.689,124.571 260.022,124.238 261.5,124.5 Z"/></g>
<g><path style="opacity:0.329" fill="#d4b2bb" d="M 287.5,124.5 C 287.068,125.71 286.401,126.71 285.5,127.5C 285.285,125.821 285.952,124.821 287.5,124.5 Z"/></g>
<g><path style="opacity:1" fill="#a13143" d="M 314.5,120.5 C 316.256,121.552 316.923,123.219 316.5,125.5C 317.873,125.343 319.207,125.51 320.5,126C 319.944,126.383 319.611,126.883 319.5,127.5C 318.167,127.5 316.833,127.5 315.5,127.5C 315.5,128.833 315.5,130.167 315.5,131.5C 315.277,133.342 314.943,135.175 314.5,137C 314.684,138.376 315.351,139.209 316.5,139.5C 316.5,140.5 316.5,141.5 316.5,142.5C 314.435,142.483 312.435,142.15 310.5,141.5C 311.011,135.89 311.011,130.556 310.5,125.5C 313.91,125.616 315.244,123.95 314.5,120.5 Z"/></g>
<g><path style="opacity:1" fill="#825185" d="M 172.5,124.5 C 170.909,126.633 168.909,128.299 166.5,129.5C 166.44,125.515 168.44,123.848 172.5,124.5 Z"/></g>
<g><path style="opacity:1" fill="#c17a81" d="M 281.5,124.5 C 283.972,125.749 284.139,127.415 282,129.5C 281.005,128.934 280.172,128.267 279.5,127.5C 280.906,127.027 281.573,126.027 281.5,124.5 Z"/></g>
<g><path style="opacity:0.392" fill="#e2c0c9" d="M 319.5,127.5 C 318.791,128.404 317.791,128.737 316.5,128.5C 316.737,129.791 316.404,130.791 315.5,131.5C 315.5,130.167 315.5,128.833 315.5,127.5C 316.833,127.5 318.167,127.5 319.5,127.5 Z"/></g>
<g><path style="opacity:1" fill="#b1505c" d="M 281.5,124.5 C 281.573,126.027 280.906,127.027 279.5,127.5C 276.674,127.998 274.34,129.331 272.5,131.5C 271.368,130.646 270.035,130.646 268.5,131.5C 270.724,125.222 275.057,122.888 281.5,124.5 Z"/></g>
<g><path style="opacity:0.463" fill="#baa0bb" d="M 91.5,128.5 C 92.9063,128.973 93.573,129.973 93.5,131.5C 92.8333,131.167 92.1667,130.833 91.5,130.5C 91.5,129.833 91.5,129.167 91.5,128.5 Z"/></g>
<g><path style="opacity:0.827" fill="#ad8ea4" d="M 161.5,130.5 C 162.5,130.5 163.5,130.5 164.5,130.5C 163.5,133.167 162.5,133.167 161.5,130.5 Z"/></g>
<g><path style="opacity:1" fill="#ab4856" d="M 287.5,139.5 C 286.533,140.806 285.199,141.473 283.5,141.5C 283.5,140.5 283.5,139.5 283.5,138.5C 283.659,134.709 284.325,131.042 285.5,127.5C 286.401,126.71 287.068,125.71 287.5,124.5C 288.496,124.586 289.329,124.252 290,123.5C 290.013,128.939 289.18,134.272 287.5,139.5 Z"/></g>
<g><path style="opacity:0.325" fill="#d8b2bd" d="M 156.5,129.5 C 157.906,129.973 158.573,130.973 158.5,132.5C 157.094,132.027 156.427,131.027 156.5,129.5 Z"/></g>
<g><path style="opacity:1" fill="#ba6873" d="M 329.5,138.5 C 329.657,137.127 329.49,135.793 329,134.5C 328.617,135.056 328.117,135.389 327.5,135.5C 329.108,132.2 330.775,128.867 332.5,125.5C 334.167,124.167 335.833,124.167 337.5,125.5C 335.059,130.065 332.392,134.398 329.5,138.5 Z"/></g>
<g><path style="opacity:1" fill="#ab4654" d="M 237.5,123.5 C 237.511,125.017 238.177,126.184 239.5,127C 246.011,128.882 248.178,133.049 246,139.5C 242.257,143.259 237.757,144.426 232.5,143C 231.584,142.722 230.918,142.222 230.5,141.5C 231.183,139.824 232.517,139.157 234.5,139.5C 236.167,139.5 237.833,139.5 239.5,139.5C 240.496,139.586 241.329,139.252 242,138.5C 242.78,136.613 242.613,134.946 241.5,133.5C 238.082,132.371 235.249,130.371 233,127.5C 232.22,125.613 232.387,123.946 233.5,122.5C 234.482,121.859 235.482,121.193 236.5,120.5C 237.386,121.325 237.719,122.325 237.5,123.5 Z"/></g>
<g><path style="opacity:1" fill="#a33647" d="M 264.5,126.5 C 265.117,126.611 265.617,126.944 266,127.5C 266.801,130.367 266.634,133.034 265.5,135.5C 263.402,136.914 262.402,136.248 262.5,133.5C 262.756,131.208 262.423,129.041 261.5,127C 262.448,126.517 263.448,126.351 264.5,126.5 Z"/></g>
<g><path style="opacity:1" fill="#a94252" d="M 307.5,127.5 C 307.5,129.5 307.5,131.5 307.5,133.5C 303.5,133.5 299.5,133.5 295.5,133.5C 295.216,135.415 295.549,137.081 296.5,138.5C 298.435,139.15 300.435,139.483 302.5,139.5C 304.796,139.804 305.129,140.804 303.5,142.5C 292.696,143.993 289.196,139.327 293,128.5C 295.92,124.638 299.753,123.138 304.5,124C 306.063,124.759 307.063,125.926 307.5,127.5 Z M 304.5,130.5 C 301.941,130.802 299.607,130.468 297.5,129.5C 299.16,127.752 301.16,127.252 303.5,128C 304.252,128.671 304.586,129.504 304.5,130.5 Z"/></g>
<g><path style="opacity:0.016" fill="#fbf8f9" d="M 297.5,129.5 C 299.607,130.468 301.941,130.802 304.5,130.5C 301.976,131.8 299.309,131.8 296.5,130.5C 296.624,129.893 296.957,129.56 297.5,129.5 Z"/></g>
<g><path style="opacity:0.341" fill="#d0adb7" d="M 307.5,127.5 C 308.468,129.607 308.802,131.941 308.5,134.5C 304.5,134.5 300.5,134.5 296.5,134.5C 296.5,135.833 296.5,137.167 296.5,138.5C 295.549,137.081 295.216,135.415 295.5,133.5C 299.5,133.5 303.5,133.5 307.5,133.5C 307.5,131.5 307.5,129.5 307.5,127.5 Z"/></g>
<g><path style="opacity:1" fill="#9f2f43" d="M 321.5,124.5 C 322.833,124.5 324.167,124.5 325.5,124.5C 325.5,125.833 325.5,127.167 325.5,128.5C 325.108,131.722 325.608,134.722 327,137.5C 327.464,136.906 327.631,136.239 327.5,135.5C 328.117,135.389 328.617,135.056 329,134.5C 329.49,135.793 329.657,137.127 329.5,138.5C 329.573,140.027 328.906,141.027 327.5,141.5C 326.279,142.028 325.113,142.695 324,143.5C 323.814,140.964 323.314,138.631 322.5,136.5C 321.527,134.052 321.194,131.385 321.5,128.5C 321.5,127.167 321.5,125.833 321.5,124.5 Z"/></g>
<g><path style="opacity:0.698" fill="#d4a7b3" d="M 145.5,135.5 C 147.404,135.738 148.738,136.738 149.5,138.5C 147.596,138.262 146.262,137.262 145.5,135.5 Z"/></g>
<g><path style="opacity:0.69" fill="#d59ca9" d="M 325.5,128.5 C 326.167,130.833 326.833,133.167 327.5,135.5C 327.631,136.239 327.464,136.906 327,137.5C 325.608,134.722 325.108,131.722 325.5,128.5 Z"/></g>
<g><path style="opacity:0.925" fill="#b194ab" d="M 141.5,137.5 C 139.5,137.5 137.5,137.5 135.5,137.5C 136.641,136.661 137.974,135.994 139.5,135.5C 140.522,135.855 141.189,136.522 141.5,137.5 Z"/></g>
<g><path style="opacity:1" fill="#c59099" d="M 234.5,139.5 C 232.517,139.157 231.183,139.824 230.5,141.5C 229.209,140.458 229.209,139.292 230.5,138C 232.14,137.652 233.473,138.152 234.5,139.5 Z"/></g>
<g><path style="opacity:0.694" fill="#d6a6b1" d="M 241.5,133.5 C 242.613,134.946 242.78,136.613 242,138.5C 241.329,139.252 240.496,139.586 239.5,139.5C 241.081,137.858 241.747,135.858 241.5,133.5 Z"/></g>
<g><path style="opacity:1" fill="#9f2c43" d="M 251.5,128.5 C 253.179,128.285 254.179,128.952 254.5,130.5C 254.737,131.791 254.404,132.791 253.5,133.5C 252.193,135.223 252.193,137.057 253.5,139C 252.756,140.039 251.756,140.539 250.5,140.5C 249.84,139.036 249.507,137.369 249.5,135.5C 249.316,132.795 249.983,130.462 251.5,128.5 Z"/></g>
<g><path style="opacity:1" fill="#b0505d" d="M 272.5,131.5 C 271.829,134.986 272.829,137.653 275.5,139.5C 277.219,140.022 278.552,141.022 279.5,142.5C 277.059,143.756 274.726,143.756 272.5,142.5C 272.027,141.094 271.027,140.427 269.5,140.5C 268.06,139.054 267.393,137.221 267.5,135C 267.514,133.615 267.848,132.449 268.5,131.5C 270.035,130.646 271.368,130.646 272.5,131.5 Z"/></g>
<g><path style="opacity:0.996" fill="#c67e8b" d="M 279.5,142.5 C 278.552,141.022 277.219,140.022 275.5,139.5C 277.17,139.249 278.67,138.582 280,137.5C 281.314,139.147 281.147,140.814 279.5,142.5 Z"/></g>
<g><path style="opacity:1" fill="#c58e96" d="M 303.5,142.5 C 305.129,140.804 304.796,139.804 302.5,139.5C 303.829,137.623 305.162,137.456 306.5,139C 306.293,140.95 305.293,142.116 303.5,142.5 Z"/></g>
<g><path style="opacity:0.753" fill="#cfa3ad" d="M 316.5,142.5 C 316.5,141.5 316.5,140.5 316.5,139.5C 317.078,138.453 317.744,138.62 318.5,140C 317.934,140.995 317.267,141.828 316.5,142.5 Z"/></g>
<g><path style="opacity:0.18" fill="#bdb0bc" d="M 143.5,138.5 C 144.885,139.947 144.552,140.947 142.5,141.5C 143.11,140.609 143.443,139.609 143.5,138.5 Z"/></g>
<g><path style="opacity:0.286" fill="#c4b0c2" d="M 213.5,132.5 C 222.444,132.227 224.444,135.727 219.5,143C 211.505,143.145 209.505,139.645 213.5,132.5 Z M 216.5,139.5 C 217.773,140.077 217.773,140.743 216.5,141.5C 215.537,141.03 215.537,140.363 216.5,139.5 Z"/></g>
<g><path style="opacity:1" fill="#b55c68" d="M 253.5,133.5 C 253.473,139.016 255.64,140.349 260,137.5C 260.791,136.255 261.291,134.922 261.5,133.5C 261.833,133.5 262.167,133.5 262.5,133.5C 262.402,136.248 263.402,136.914 265.5,135.5C 263.951,141.78 259.951,144.28 253.5,143C 252.058,142.623 251.058,141.79 250.5,140.5C 251.756,140.539 252.756,140.039 253.5,139C 252.193,137.057 252.193,135.223 253.5,133.5 Z"/></g>
<g><path style="opacity:0.561" fill="#ad93ad" d="M 208.5,131.5 C 209.482,134.962 209.815,138.629 209.5,142.5C 206.287,142.81 203.287,142.477 200.5,141.5C 203.167,141.5 205.833,141.5 208.5,141.5C 208.5,138.167 208.5,134.833 208.5,131.5 Z"/></g>
<g><path style="opacity:0.349" fill="#d8b1bb" d="M 269.5,140.5 C 271.027,140.427 272.027,141.094 272.5,142.5C 270.973,142.573 269.973,141.906 269.5,140.5 Z"/></g>
<g><path style="opacity:0.827" fill="#cf939f" d="M 283.5,138.5 C 283.5,139.5 283.5,140.5 283.5,141.5C 285.199,141.473 286.533,140.806 287.5,139.5C 287.616,142.91 285.95,144.244 282.5,143.5C 282.216,141.585 282.549,139.919 283.5,138.5 Z"/></g>
<g><path style="opacity:0.373" fill="#bca8bd" d="M 89.5,141.5 C 91.0269,141.427 92.0269,142.094 92.5,143.5C 90.9731,143.573 89.9731,142.906 89.5,141.5 Z"/></g>
<g><path style="opacity:0.035" fill="#efdee3" d="M 310.5,141.5 C 312.435,142.15 314.435,142.483 316.5,142.5C 315.903,143.139 315.07,143.472 314,143.5C 312.301,143.613 311.134,142.947 310.5,141.5 Z"/></g>
<g><path style="opacity:1" fill="#702f75" d="M 91.5,130.5 C 92.1667,130.833 92.8333,131.167 93.5,131.5C 100.275,137.037 108.109,139.703 117,139.5C 123.161,138.709 129.327,138.042 135.5,137.5C 137.5,137.5 139.5,137.5 141.5,137.5C 142.167,137.833 142.833,138.167 143.5,138.5C 143.443,139.609 143.11,140.609 142.5,141.5C 129.724,146.895 116.39,148.562 102.5,146.5C 100.485,145.076 98.1522,144.41 95.5,144.5C 94.391,144.443 93.391,144.11 92.5,143.5C 92.0269,142.094 91.0269,141.427 89.5,141.5C 85.8333,139.833 83.1667,137.167 81.5,133.5C 83.9386,134.9 85.7719,134.233 87,131.5C 88.049,133.107 89.549,133.773 91.5,133.5C 91.5,132.5 91.5,131.5 91.5,130.5 Z"/></g>
<g><path style="opacity:1" fill="#b9636e" d="M 322.5,136.5 C 323.314,138.631 323.814,140.964 324,143.5C 325.113,142.695 326.279,142.028 327.5,141.5C 326.226,144.76 324.56,147.76 322.5,150.5C 320.821,150.715 319.821,150.048 319.5,148.5C 320.906,148.027 321.573,147.027 321.5,145.5C 322.299,142.57 322.632,139.57 322.5,136.5 Z"/></g>
<g><path style="opacity:0.616" fill="#aa90ac" d="M 95.5,144.5 C 98.1522,144.41 100.485,145.076 102.5,146.5C 99.8478,146.59 97.5145,145.924 95.5,144.5 Z"/></g>
<g><path style="opacity:0.427" fill="#d2a5af" d="M 321.5,145.5 C 321.573,147.027 320.906,148.027 319.5,148.5C 319.427,146.973 320.094,145.973 321.5,145.5 Z"/></g>
<g><path style="opacity:0.043" fill="#e7d7db" d="M 319.5,148.5 C 319.821,150.048 320.821,150.715 322.5,150.5C 321.432,151.434 320.099,151.768 318.5,151.5C 318.263,150.209 318.596,149.209 319.5,148.5 Z"/></g>
<g><path style="opacity:0.161" fill="#efe3e7" d="M 203.5,156.5 C 204.568,155.566 205.901,155.232 207.5,155.5C 207.737,156.791 207.404,157.791 206.5,158.5C 206.179,156.952 205.179,156.285 203.5,156.5 Z"/></g>
<g><path style="opacity:0.161" fill="#e9dce0" d="M 336.5,156.5 C 337.568,155.566 338.901,155.232 340.5,155.5C 340.768,157.099 340.434,158.432 339.5,159.5C 339.5,158.5 339.5,157.5 339.5,156.5C 338.5,156.5 337.5,156.5 336.5,156.5 Z"/></g>
<g><path style="opacity:1" fill="#b35a68" d="M 152.5,154.5 C 155.084,155.048 156.084,156.715 155.5,159.5C 154.167,159.5 152.833,159.5 151.5,159.5C 151.366,157.708 151.699,156.042 152.5,154.5 Z"/></g>
<g><path style="opacity:1" fill="#b66a75" d="M 236.5,154.5 C 240.161,154.35 241.161,155.85 239.5,159C 235.707,159.487 234.707,157.987 236.5,154.5 Z"/></g>
<g><path style="opacity:0.998" fill="#b76b75" d="M 293.5,154.5 C 297.161,154.35 298.161,155.85 296.5,159C 292.707,159.487 291.707,157.987 293.5,154.5 Z"/></g>
<g><path style="opacity:1" fill="#b96972" d="M 359.5,154.5 C 363.161,154.35 364.161,155.85 362.5,159C 358.707,159.487 357.707,157.987 359.5,154.5 Z"/></g>
<g><path style="opacity:0.376" fill="#c79ba7" d="M 300.5,158.5 C 301.568,157.566 302.901,157.232 304.5,157.5C 304.5,158.5 304.5,159.5 304.5,160.5C 303.533,159.194 302.199,158.527 300.5,158.5 Z"/></g>
<g><path style="opacity:1" fill="#a84150" d="M 111.5,166.5 C 112.573,165.749 112.74,164.749 112,163.5C 111.667,163.833 111.333,164.167 111,164.5C 110.51,163.207 110.343,161.873 110.5,160.5C 110.854,156.154 113.187,154.487 117.5,155.5C 116.821,161.552 115.821,167.552 114.5,173.5C 113.167,173.5 111.833,173.5 110.5,173.5C 110.674,171.139 111.007,168.806 111.5,166.5 Z"/></g>
<g><path style="opacity:1" fill="#a13647" d="M 192.5,161.5 C 191.883,161.611 191.383,161.944 191,162.5C 190.502,165.817 190.335,169.15 190.5,172.5C 189.5,172.5 188.5,172.5 187.5,172.5C 187.5,170.833 187.5,169.167 187.5,167.5C 187.884,163.414 188.717,159.414 190,155.5C 191.011,154.663 192.178,154.33 193.5,154.5C 193.702,156.95 193.369,159.283 192.5,161.5 Z"/></g>
<g><path style="opacity:0.031" fill="#eee0e3" d="M 278.5,160.5 C 279.167,160.833 279.833,161.167 280.5,161.5C 280.5,162.167 280.167,162.5 279.5,162.5C 279.167,162.5 278.833,162.5 278.5,162.5C 278.5,161.833 278.5,161.167 278.5,160.5 Z"/></g>
<g><path style="opacity:0.482" fill="#cda1ac" d="M 298.5,160.5 C 299.623,162.979 299.623,165.312 298.5,167.5C 297.897,164.959 297.897,162.626 298.5,160.5 Z"/></g>
<g><path style="opacity:1" fill="#a74351" d="M 105.5,167.5 C 106.15,169.435 106.483,171.435 106.5,173.5C 105.167,173.5 103.833,173.5 102.5,173.5C 102.5,171.167 102.5,168.833 102.5,166.5C 102.762,165.022 102.429,163.689 101.5,162.5C 100.548,164.045 100.215,165.712 100.5,167.5C 101.575,171.938 99.9083,173.938 95.5,173.5C 96.6002,168.167 97.7669,162.834 99,157.5C 100.401,155.808 102.234,155.141 104.5,155.5C 105.162,159.466 105.495,163.466 105.5,167.5 Z"/></g>
<g><path style="opacity:1" fill="#a74857" d="M 150.5,160.5 C 151.833,160.5 153.167,160.5 154.5,160.5C 153.993,164.86 153.327,169.193 152.5,173.5C 151.167,173.5 149.833,173.5 148.5,173.5C 148.909,169.124 149.575,164.79 150.5,160.5 Z"/></g>
<g><path style="opacity:1" fill="#b66371" d="M 225.5,160.5 C 225.389,161.117 225.056,161.617 224.5,162C 225.737,162.232 226.737,162.732 227.5,163.5C 224.6,163.408 222.933,164.741 222.5,167.5C 222.146,165.459 222.146,163.626 222.5,162C 221.212,161.761 220.212,162.261 219.5,163.5C 219.5,162.5 219.5,161.5 219.5,160.5C 221.5,160.5 223.5,160.5 225.5,160.5 Z"/></g>
<g><path style="opacity:1" fill="#b45c65" d="M 264.5,167.5 C 264.167,166.5 263.5,165.833 262.5,165.5C 262.053,163.027 261.053,162.86 259.5,165C 260.094,165.464 260.761,165.631 261.5,165.5C 261.265,166.097 260.765,166.43 260,166.5C 258.7,165.293 257.2,164.626 255.5,164.5C 255.5,167.167 255.5,169.833 255.5,172.5C 252.582,165.661 254.748,161.328 262,159.5C 267.883,160.965 268.716,163.631 264.5,167.5 Z M 262.5,165.5 C 262.167,165.5 261.833,165.5 261.5,165.5C 260.761,165.631 260.094,165.464 259.5,165C 261.053,162.86 262.053,163.027 262.5,165.5 Z"/></g>
<g><path style="opacity:1" fill="#af4c58" d="M 287.5,160.5 C 288.11,161.391 288.443,162.391 288.5,163.5C 287.047,163.929 285.381,164.096 283.5,164C 288.302,165.139 289.636,167.972 287.5,172.5C 284.967,174.474 282.3,174.808 279.5,173.5C 278.086,171.402 278.752,170.402 281.5,170.5C 282.675,170.719 283.675,170.386 284.5,169.5C 283.311,168.571 281.978,168.238 280.5,168.5C 279.89,167.609 279.557,166.609 279.5,165.5C 279.5,164.833 279.5,164.167 279.5,163.5C 279.5,163.167 279.5,162.833 279.5,162.5C 280.167,162.5 280.5,162.167 280.5,161.5C 282.617,159.684 284.951,159.35 287.5,160.5 Z"/></g>
<g><path style="opacity:0.224" fill="#dcbec7" d="M 287.5,160.5 C 289.552,161.053 289.885,162.053 288.5,163.5C 288.443,162.391 288.11,161.391 287.5,160.5 Z"/></g>
<g><path style="opacity:0.698" fill="#d198a6" d="M 306.5,160.5 C 307.167,160.5 307.833,160.5 308.5,160.5C 308.5,161.167 308.5,161.833 308.5,162.5C 306.191,162.988 304.191,163.988 302.5,165.5C 302.5,164.5 302.5,163.5 302.5,162.5C 304.483,162.843 305.817,162.176 306.5,160.5 Z"/></g>
<g><path style="opacity:1" fill="#a63f4e" d="M 203.5,156.5 C 205.179,156.285 206.179,156.952 206.5,158.5C 206.533,161.836 205.866,165.003 204.5,168C 205.471,169.481 206.804,170.315 208.5,170.5C 209.675,170.281 210.675,170.614 211.5,171.5C 209.293,172.635 206.96,173.301 204.5,173.5C 201.862,172.758 200.529,170.925 200.5,168C 201.295,163.983 202.295,160.149 203.5,156.5 Z"/></g>
<g><path style="opacity:1" fill="#a6394a" d="M 261.5,165.5 C 261.833,165.5 262.167,165.5 262.5,165.5C 263.5,165.833 264.167,166.5 264.5,167.5C 263.508,167.328 262.842,167.662 262.5,168.5C 261.022,168.238 259.689,168.571 258.5,169.5C 259.808,170.626 261.142,170.626 262.5,169.5C 263.167,169.5 263.833,169.5 264.5,169.5C 265.935,171.665 265.269,173.165 262.5,174C 259.788,174.826 257.455,174.326 255.5,172.5C 255.5,169.833 255.5,167.167 255.5,164.5C 257.2,164.626 258.7,165.293 260,166.5C 260.765,166.43 261.265,166.097 261.5,165.5 Z"/></g>
<g><path style="opacity:0.047" fill="#f9f4f5" d="M 276.5,163.5 C 277.167,163.5 277.833,163.5 278.5,163.5C 278.833,163.5 279.167,163.5 279.5,163.5C 279.5,164.167 279.5,164.833 279.5,165.5C 278.29,165.068 277.29,164.401 276.5,163.5 Z"/></g>
<g><path style="opacity:0.082" fill="#e3bcc5" d="M 102.5,166.5 C 101.833,166.833 101.167,167.167 100.5,167.5C 100.215,165.712 100.548,164.045 101.5,162.5C 102.429,163.689 102.762,165.022 102.5,166.5 Z"/></g>
<g><path style="opacity:1" fill="#a33c4d" d="M 168.5,161.5 C 168.813,164.247 168.48,166.914 167.5,169.5C 167.036,167.025 166.036,165.025 164.5,163.5C 161.045,164.128 159.878,166.128 161,169.5C 161.671,170.252 162.504,170.586 163.5,170.5C 165.027,170.427 166.027,171.094 166.5,172.5C 164.622,174.509 162.456,174.842 160,173.5C 159.015,175.175 158.181,176.842 157.5,178.5C 156.209,178.737 155.209,178.404 154.5,177.5C 155.34,171.807 156.34,166.14 157.5,160.5C 160.066,160.656 162.566,160.322 165,159.5C 166.459,159.808 167.626,160.475 168.5,161.5 Z"/></g>
<g><path style="opacity:1" fill="#aa4855" d="M 215.5,166.5 C 214.416,167.974 213.082,168.807 211.5,169C 212.38,167.644 212.714,166.144 212.5,164.5C 212.508,161.455 212.841,158.455 213.5,155.5C 214.833,155.5 216.167,155.5 217.5,155.5C 217.354,159.387 216.687,163.054 215.5,166.5 Z"/></g>
<g><path style="opacity:0.953" fill="#c88792" d="M 335.5,162.5 C 335.741,164.898 335.074,166.898 333.5,168.5C 333.595,166.214 334.262,164.214 335.5,162.5 Z"/></g>
<g><path style="opacity:1" fill="#aa4855" d="M 380.5,160.5 C 381.833,160.5 383.167,160.5 384.5,160.5C 383.599,163.872 383.599,167.205 384.5,170.5C 385.478,170.023 386.311,169.357 387,168.5C 387.567,165.832 388.067,163.166 388.5,160.5C 389.833,160.5 391.167,160.5 392.5,160.5C 391.941,164.853 391.275,169.186 390.5,173.5C 386.898,174.034 383.398,174.034 380,173.5C 379.362,172.391 378.862,171.225 378.5,170C 379.222,166.829 379.889,163.662 380.5,160.5 Z"/></g>
<g><path style="opacity:1" fill="#a13b4b" d="M 222.5,167.5 C 223.152,171.56 221.485,173.56 217.5,173.5C 217.788,170.061 218.454,166.728 219.5,163.5C 220.212,162.261 221.212,161.761 222.5,162C 222.146,163.626 222.146,165.459 222.5,167.5 Z"/></g>
<g><path style="opacity:1" fill="#b55b67" d="M 248.5,171.5 C 248.715,169.821 248.048,168.821 246.5,168.5C 247.172,165.658 248.506,163.158 250.5,161C 251.944,160.219 253.277,160.386 254.5,161.5C 252.977,165.229 250.977,168.562 248.5,171.5 Z"/></g>
<g><path style="opacity:1" fill="#aa4756" d="M 141.5,159.5 C 143.582,159.472 145.416,160.139 147,161.5C 147.156,165.555 146.656,169.555 145.5,173.5C 144.167,173.5 142.833,173.5 141.5,173.5C 141.62,170.52 142.287,167.687 143.5,165C 141.863,163.049 140.363,163.216 139,165.5C 138.178,168.117 137.678,170.784 137.5,173.5C 136.167,173.5 134.833,173.5 133.5,173.5C 133.522,169.389 134.189,165.389 135.5,161.5C 137.631,160.831 139.631,160.165 141.5,159.5 Z"/></g>
<g><path style="opacity:1" fill="#b75c68" d="M 110.5,160.5 C 110.343,161.873 110.51,163.207 111,164.5C 111.333,164.167 111.667,163.833 112,163.5C 112.74,164.749 112.573,165.749 111.5,166.5C 109.588,168.657 107.921,170.991 106.5,173.5C 106.483,171.435 106.15,169.435 105.5,167.5C 106.921,164.991 108.588,162.657 110.5,160.5 Z"/></g>
<g><path style="opacity:1" fill="#a84553" d="M 235.5,160.5 C 236.978,160.238 238.311,160.571 239.5,161.5C 238.627,165.198 237.627,168.865 236.5,172.5C 235.311,173.429 233.978,173.762 232.5,173.5C 233.349,169.106 234.349,164.772 235.5,160.5 Z"/></g>
<g><path style="opacity:1" fill="#a64151" d="M 246.5,168.5 C 248.048,168.821 248.715,169.821 248.5,171.5C 247.082,173.308 245.082,173.975 242.5,173.5C 241.941,169.147 241.275,164.814 240.5,160.5C 242.167,160.5 243.833,160.5 245.5,160.5C 245.194,163.385 245.527,166.052 246.5,168.5 Z"/></g>
<g><path style="opacity:0.051" fill="#ebd9de" d="M 264.5,167.5 C 264.5,168.167 264.5,168.833 264.5,169.5C 263.833,169.5 263.167,169.5 262.5,169.5C 262.5,169.167 262.5,168.833 262.5,168.5C 262.842,167.662 263.508,167.328 264.5,167.5 Z"/></g>
<g><path style="opacity:1" fill="#ad535f" d="M 395.5,160.5 C 398.5,160.5 401.5,160.5 404.5,160.5C 404.452,163.635 402.785,165.302 399.5,165.5C 398.518,168.096 397.851,170.762 397.5,173.5C 396.167,173.5 394.833,173.5 393.5,173.5C 393.909,169.124 394.575,164.79 395.5,160.5 Z"/></g>
<g><path style="opacity:1" fill="#b35e6d" d="M 168.5,161.5 C 169.638,164.304 169.805,167.304 169,170.5C 168.292,171.381 167.458,172.047 166.5,172.5C 166.027,171.094 165.027,170.427 163.5,170.5C 165.604,168.417 165.938,166.083 164.5,163.5C 166.036,165.025 167.036,167.025 167.5,169.5C 168.48,166.914 168.813,164.247 168.5,161.5 Z"/></g>
<g><path style="opacity:1" fill="#be6c76" d="M 212.5,164.5 C 212.714,166.144 212.38,167.644 211.5,169C 213.082,168.807 214.416,167.974 215.5,166.5C 214.391,173.074 210.724,175.407 204.5,173.5C 206.96,173.301 209.293,172.635 211.5,171.5C 210.675,170.614 209.675,170.281 208.5,170.5C 210.342,168.81 211.675,166.81 212.5,164.5 Z"/></g>
<g><path style="opacity:1" fill="#a84655" d="M 227.5,163.5 C 226.737,162.732 225.737,162.232 224.5,162C 225.056,161.617 225.389,161.117 225.5,160.5C 227.467,159.368 229.3,159.701 231,161.5C 231.357,165.51 231.19,169.51 230.5,173.5C 228.712,173.785 227.045,173.452 225.5,172.5C 226.642,169.601 227.308,166.601 227.5,163.5 Z"/></g>
<g><path style="opacity:1" fill="#a64251" d="M 278.5,160.5 C 278.5,161.167 278.5,161.833 278.5,162.5C 278.5,162.833 278.5,163.167 278.5,163.5C 277.833,163.5 277.167,163.5 276.5,163.5C 273.409,165.553 271.909,168.553 272,172.5C 270.644,173.38 269.144,173.714 267.5,173.5C 268.646,169.246 269.313,164.913 269.5,160.5C 272.5,160.5 275.5,160.5 278.5,160.5 Z"/></g>
<g><path style="opacity:0.651" fill="#daaab6" d="M 280.5,168.5 C 280.833,169.167 281.167,169.833 281.5,170.5C 278.752,170.402 278.086,171.402 279.5,173.5C 275.516,171.402 275.849,169.735 280.5,168.5 Z"/></g>
<g><path style="opacity:1" fill="#ac505d" d="M 292.5,160.5 C 293.978,160.238 295.311,160.571 296.5,161.5C 295.189,165.389 294.522,169.389 294.5,173.5C 292.833,173.5 291.167,173.5 289.5,173.5C 290.349,169.106 291.349,164.772 292.5,160.5 Z"/></g>
<g><path style="opacity:1" fill="#ad4c58" d="M 308.5,160.5 C 309.833,160.5 311.167,160.5 312.5,160.5C 312.336,163.187 312.503,165.854 313,168.5C 314.626,166.083 316.126,163.583 317.5,161C 318.793,160.51 320.127,160.343 321.5,160.5C 318.967,165.895 316.133,171.229 313,176.5C 310.161,179.724 307.328,180.058 304.5,177.5C 305.995,177.011 307.329,176.345 308.5,175.5C 309.304,171.244 309.304,166.911 308.5,162.5C 308.5,161.833 308.5,161.167 308.5,160.5 Z"/></g>
<g><path style="opacity:1" fill="#ae4f5b" d="M 123.5,159.5 C 126.455,160.159 129.455,160.492 132.5,160.5C 131.993,164.86 131.327,169.193 130.5,173.5C 127.781,173.397 125.115,173.731 122.5,174.5C 117.283,172.317 116.116,168.65 119,163.5C 120.397,161.93 121.897,160.596 123.5,159.5 Z M 124.5,163.5 C 128.164,164.867 128.497,167.034 125.5,170C 124.552,170.483 123.552,170.649 122.5,170.5C 122.166,167.812 122.832,165.479 124.5,163.5 Z"/></g>
<g><path style="opacity:1" fill="#a94653" d="M 300.5,158.5 C 302.199,158.527 303.533,159.194 304.5,160.5C 305.167,160.5 305.833,160.5 306.5,160.5C 305.817,162.176 304.483,162.843 302.5,162.5C 302.5,163.5 302.5,164.5 302.5,165.5C 302.5,167.167 302.5,168.833 302.5,170.5C 303.5,170.5 304.5,170.5 305.5,170.5C 305.22,174.225 303.22,175.392 299.5,174C 297.42,172.039 297.086,169.872 298.5,167.5C 299.623,165.312 299.623,162.979 298.5,160.5C 299.167,159.833 299.833,159.167 300.5,158.5 Z"/></g>
<g><path style="opacity:1" fill="#a94957" d="M 358.5,160.5 C 359.833,160.5 361.167,160.5 362.5,160.5C 361.861,164.527 361.028,168.527 360,172.5C 358.644,173.38 357.144,173.714 355.5,173.5C 356.609,169.168 357.609,164.835 358.5,160.5 Z"/></g>
<g><path style="opacity:1" fill="#a74251" d="M 179.5,173.5 C 180.405,172.298 180.405,170.964 179.5,169.5C 180.752,167.661 180.752,165.828 179.5,164C 177.588,163.721 176.254,164.554 175.5,166.5C 174.549,167.919 174.216,169.585 174.5,171.5C 176.483,171.157 177.817,171.824 178.5,173.5C 173.905,175.273 171.238,173.607 170.5,168.5C 172.785,159.86 178.118,157.36 186.5,161C 185.058,165.041 184.058,169.208 183.5,173.5C 182.167,173.5 180.833,173.5 179.5,173.5 Z M 179.5,169.5 C 176.6,170.954 175.267,169.954 175.5,166.5C 176.254,164.554 177.588,163.721 179.5,164C 180.752,165.828 180.752,167.661 179.5,169.5 Z"/></g>
<g><path style="opacity:1" fill="#b76271" d="M 175.5,166.5 C 175.267,169.954 176.6,170.954 179.5,169.5C 180.405,170.964 180.405,172.298 179.5,173.5C 179.167,173.5 178.833,173.5 178.5,173.5C 177.817,171.824 176.483,171.157 174.5,171.5C 174.216,169.585 174.549,167.919 175.5,166.5 Z"/></g>
<g><path style="opacity:1" fill="#bc7a82" d="M 192.5,161.5 C 191.344,165.507 191.177,169.507 192,173.5C 190.542,174.747 189.042,174.747 187.5,173.5C 186.207,171.364 186.207,169.364 187.5,167.5C 187.5,169.167 187.5,170.833 187.5,172.5C 188.5,172.5 189.5,172.5 190.5,172.5C 190.335,169.15 190.502,165.817 191,162.5C 191.383,161.944 191.883,161.611 192.5,161.5 Z"/></g>
<g><path style="opacity:1" fill="#ac4b57" d="M 336.5,156.5 C 337.5,156.5 338.5,156.5 339.5,156.5C 339.5,157.5 339.5,158.5 339.5,159.5C 339.607,164.491 338.274,168.991 335.5,173C 332.209,175.074 329.043,174.908 326,172.5C 326.19,167.135 328.023,166.468 331.5,170.5C 332.522,170.145 333.189,169.478 333.5,168.5C 335.074,166.898 335.741,164.898 335.5,162.5C 335.325,160.379 335.659,158.379 336.5,156.5 Z"/></g>
<g><path style="opacity:1" fill="#ab4957" d="M 346.5,159.5 C 349.562,159.844 352.562,160.511 355.5,161.5C 354.402,165.423 353.735,169.423 353.5,173.5C 341.518,176.691 338.018,172.691 343,161.5C 344.302,160.915 345.469,160.249 346.5,159.5 Z M 346.5,163.5 C 351.337,165.007 351.503,167.34 347,170.5C 345.5,170.333 344.667,169.5 344.5,168C 345.044,166.415 345.711,164.915 346.5,163.5 Z"/></g>
<g><path style="opacity:1" fill="#a94754" d="M 365.5,178.5 C 364.5,178.5 363.5,178.5 362.5,178.5C 362.5,177.5 362.5,176.5 362.5,175.5C 363.008,170.784 363.842,166.118 365,161.5C 375.663,157.163 379.329,160.496 376,171.5C 373.627,174.302 370.793,174.969 367.5,173.5C 366.678,175.139 366.011,176.805 365.5,178.5 Z M 370.5,163.5 C 374.027,164.936 374.36,167.103 371.5,170C 370.552,170.483 369.552,170.649 368.5,170.5C 368.185,167.789 368.852,165.456 370.5,163.5 Z"/></g>
<g><path style="opacity:0.529" fill="#c298a4" d="M 308.5,175.5 C 307.329,176.345 305.995,177.011 304.5,177.5C 305.183,175.824 306.517,175.157 308.5,175.5 Z"/></g>
<g><path style="opacity:0.216" fill="#ebdbe0" d="M 154.5,177.5 C 155.209,178.404 156.209,178.737 157.5,178.5C 156.292,179.782 154.958,179.782 153.5,178.5C 153.624,177.893 153.957,177.56 154.5,177.5 Z"/></g>
<g><path style="opacity:0.208" fill="#e7d4d9" d="M 362.5,175.5 C 362.5,176.5 362.5,177.5 362.5,178.5C 363.5,178.5 364.5,178.5 365.5,178.5C 364.432,179.434 363.099,179.768 361.5,179.5C 361.232,177.901 361.566,176.568 362.5,175.5 Z"/></g>
</svg>
